<svg id="Layer_1" data-name="Layer 1" xmlns="http://www.w3.org/2000/svg" viewBox="0 0 100 100"><title>Artboard 1</title><path d="M83.3,43.83a2,2,0,0,0-.57.12c-.4.2-.76.5-1.17.68a19.25,19.25,0,0,1-1.84.67q-1.18.38-2.38.7c-.32.09-.67.09-1,.16-.63.12-1.26.28-1.89.38s-1.18.13-1.77.18a8.11,8.11,0,0,0-1,.06,4.74,4.74,0,0,1-1.72-.08,6.74,6.74,0,0,0-1.07.07c-.52,0-1,0-1.55,0s-1.06.06-1.58.09h-.4c-.91-.06-1.8.16-2.72.05a3.93,3.93,0,0,0-.68,0,4.24,4.24,0,0,0-3.19,1.09A1,1,0,0,0,59,49.28c.37.18.71.51,1.19.28.82.41,1.69,0,2.54.12A4.82,4.82,0,0,0,64,49.52c.58-.06,1.16-.1,1.73-.15l3.45-.25c.36,0,.72,0,1.07,0,1.48,0,3-.07,4.45-.08a18.77,18.77,0,0,1,2.51.1,13.26,13.26,0,0,1,4.21.76c.7.34,1.49.51,2.18.86a18.79,18.79,0,0,1,3.55,2.45,10.79,10.79,0,0,1,2.11,2.55A9.28,9.28,0,0,1,90.5,58.6a10.24,10.24,0,0,1,.34,2.82,18.58,18.58,0,0,1-.2,2,9.82,9.82,0,0,1-.46,1.75,17.08,17.08,0,0,1-1,2.46,21.8,21.8,0,0,1-1.91,2.93,13.83,13.83,0,0,1-1.78,1.58c-.22.19-.41.41-.62.61-.56.54-1.19,1-1.75,1.54A21.78,21.78,0,0,0,80.85,77a22.8,22.8,0,0,0-1.14,2c-.21.35-.59.65-.68,1a2.92,2.92,0,0,1-.9,1.33,26.19,26.19,0,0,1-2.61,2.52,10.84,10.84,0,0,1-2.76,1.5,15.18,15.18,0,0,1-3.09.71,11.15,11.15,0,0,1-1.94,0,9.19,9.19,0,0,1-3.06-.65c-.75-.29-1.42-.79-2.16-1.13A7.12,7.12,0,0,1,61,83a15.11,15.11,0,0,1-1.15-1.11,4.19,4.19,0,0,1-.38-.54c-.64-.92-1.31-1.82-1.92-2.77a16.33,16.33,0,0,1-1.13-2.1c-.43-1-.83-1.95-1.17-2.95a25.31,25.31,0,0,1-.83-2.92q-.58-2.72-1-5.46c-.16-1-.19-1.93-.3-2.9a3,3,0,0,0-.26-.88c-.15-.33-1-.37-1.22-.05a4.15,4.15,0,0,0-.55,1.37,22.9,22.9,0,0,0-.19,3.17c0,1.73.08,3.47.24,5.19.14,1.47.42,2.92.69,4.37.23,1.19.54,2.37.81,3.55.16.7.28,1.41.5,2.1a28.55,28.55,0,0,0,1.71,4.75c.34.65.49,1.39.8,2.06.44.95.93,1.88,1.45,2.79.37.64.82,1.23,1.23,1.85.24.37,0,.77-.51.77-1,0-2-.09-3-.19s-2.11-.28-3.16-.42l-1-.12c-.52-.07-.69-.46-.83-.88-.26-.78-.53-1.55-.78-2.33s-.45-1.42-.64-2.14c-.11-.4-.12-.82-.22-1.22-.21-.85-.5-1.68-.68-2.54s-.3-1.89-.44-2.83c-.07-.5-.14-1-.2-1.49s-.14-1.2-.17-1.8c-.05-.85-.08-1.71-.11-2.56,0-1-.07-2.08-.08-3.12,0-.65.06-1.3.08-1.95,0-.93,0-1.86.11-2.79s.26-2.09.34-3.14c.06-.79,0-1.59,0-2.39a.75.75,0,0,0-.77-.68,1,1,0,0,0-.72.5A13.56,13.56,0,0,0,45,62.91c-.12.39-.27.78-.37,1.18-.21.89-.37,1.79-.57,2.68q-.42,1.83-.88,3.65c-.29,1.13-.57,2.26-.91,3.36a13.78,13.78,0,0,1-.75,1.6c-.14.29-.23.61-.38.89A21.08,21.08,0,0,1,40,78.42a12.93,12.93,0,0,1-2.15,3c-.61.51-1.08,1.16-1.66,1.71a10.83,10.83,0,0,1-3.56,2.15A11.09,11.09,0,0,1,30,86,6,6,0,0,1,27.4,86a4.33,4.33,0,0,0-.81-.13,5.24,5.24,0,0,1-2.31-1,23.63,23.63,0,0,1-2-1.39A9.42,9.42,0,0,1,21,82c-.45-.57-.91-1.13-1.32-1.72-.25-.36-.41-.78-.64-1.16-.46-.76-.94-1.5-1.39-2.25a13,13,0,0,0-1.85-2.49c-.8-.82-1.62-1.63-2.46-2.4s-1.81-1.53-2.69-2.33A12.32,12.32,0,0,1,8.75,67.2a10.73,10.73,0,0,1-1.21-3.3,6.83,6.83,0,0,1-.05-2.13c0-.73.2-1.45.26-2.17a7.67,7.67,0,0,1,1-2.87c.37-.72.75-1.44,1.18-2.13a6.64,6.64,0,0,1,1-1.25c.83-.79,1.68-1.58,2.57-2.3a10.34,10.34,0,0,1,3.12-1.68c.65-.23,1.4-.22,2-.49a7.46,7.46,0,0,1,2.46-.39,33.94,33.94,0,0,1,3.6,0c.73,0,1.45.12,2.18.17l2.46.15,2.8.22c.6,0,1.2.07,1.81.09.76,0,1.52.07,2.28.09s1.51,0,2.25,0a1.26,1.26,0,0,0,1.14-.88,1,1,0,0,0-.42-1.12,3.29,3.29,0,0,0-2-.6,25.91,25.91,0,0,1-2.73-.08,6.2,6.2,0,0,0-1.59.1c-.42,0-.84-.06-1.25-.06-.62,0-1.23,0-1.85,0s-1,0-1.46,0-1,0-1.43-.1-.82-.13-1.23-.2l-.69-.15-1.49-.32c-.69-.14-1.38-.24-2.06-.41a9.35,9.35,0,0,1-1.25-.52c-.86-.37-1.73-.7-2.57-1.11a14.68,14.68,0,0,1-1.51-1c-.59-.39-1.19-.76-1.77-1.17a6.34,6.34,0,0,1-2-2c-.29-.51-.82-.9-1.09-1.41A22.6,22.6,0,0,1,9.85,35.2a10,10,0,0,1-.32-2.1,7.65,7.65,0,0,1,.11-2.71,10.75,10.75,0,0,1,.86-2.82c.49-.88,1.09-1.69,1.64-2.53A9.47,9.47,0,0,1,14,23.12a26.19,26.19,0,0,1,2.86-2,15.16,15.16,0,0,0,3.64-3.25c.83-1,1.76-2,2.52-3.11A18.39,18.39,0,0,1,25.36,12a10.63,10.63,0,0,1,2.91-1.87c.88-.41,1.83-.55,2.72-.89a7.42,7.42,0,0,1,1.93-.15A13.9,13.9,0,0,1,34.43,9a14.57,14.57,0,0,1,2.38.22,11.81,11.81,0,0,1,2.28.7A14.65,14.65,0,0,1,41,10.94a9.6,9.6,0,0,1,1.26.86,17.64,17.64,0,0,1,2,1.85,21.07,21.07,0,0,1,2,2.73,11.27,11.27,0,0,1,.87,2.12c.28.77.5,1.56.74,2.35a1.45,1.45,0,0,1,0,.22c.07.5.16,1,.21,1.49.1,1,.18,1.93.26,2.89,0,.36.07.71.08,1.07s0,.92,0,1.38c0,.95,0,1.9,0,2.85,0,1.69,0,3.38,0,5.06a5,5,0,0,0,.27,1.33.8.8,0,0,0,.87.64,1.11,1.11,0,0,0,1-.74A8.69,8.69,0,0,0,51,34.94a23.93,23.93,0,0,0,.25-3.67c0-.87,0-1.74.1-2.61s.23-1.79.35-2.69c0-.4,0-.81.12-1.2q.33-1.57.73-3.13a18.22,18.22,0,0,1,.68-2.36,29.77,29.77,0,0,1,1.33-2.73,8.13,8.13,0,0,1,1.09-1.77A35.29,35.29,0,0,1,58.56,12a12.6,12.6,0,0,1,2.28-1.54,10.11,10.11,0,0,1,2.09-.74,19.46,19.46,0,0,1,2.56-.56,5.66,5.66,0,0,1,2.25,0c.41.11.85.09,1.26.18a16.4,16.4,0,0,1,2.47.69,13.19,13.19,0,0,1,3.48,2.2,10,10,0,0,1,1.37,1.66,25.94,25.94,0,0,1,2.23,3.89,10.19,10.19,0,0,0,2.22,2.8,31.21,31.21,0,0,0,3.77,2.64,12.91,12.91,0,0,1,2.83,2.44c.41.48.83.94,1.2,1.45a3.27,3.27,0,0,1,.46,1c.28,1,.47,2,.8,2.94A7.17,7.17,0,0,1,90,33.68a8.23,8.23,0,0,1-.53,2.17,24.68,24.68,0,0,1-1.05,2.74,6.11,6.11,0,0,1-1.06,1.53c-.82.88-1.7,1.71-2.57,2.55-.22.21-.52.36-.76.55S83.54,43.62,83.3,43.83ZM31,38.8a5,5,0,0,0,.51-.37c.16-.16.29-.36.45-.51s.6-.48.85-.76.21-.45.13-.56a22.31,22.31,0,0,0-1.6-1.94,12.69,12.69,0,0,0-1.13-.87c-.44-.37-.85-.78-1.28-1.16a.57.57,0,0,1,0-.9c.54-.47,1.06-1,1.57-1.46s1.26-1.31,1.93-1.93a.58.58,0,0,1,.89-.05c.23.23.46.47.7.69.6.56,1.22,1.11,1.81,1.68s.92,1,1.42,1.41a.6.6,0,0,0,.56,0,14.48,14.48,0,0,0,1.33-1.27c.37-.4.36-.65,0-1.08a9.81,9.81,0,0,1-.72-.75,5.71,5.71,0,0,0-.95-1.13,11.93,11.93,0,0,1-1.64-1.47,15.64,15.64,0,0,0-1.79-1.75c-.84-.77-1.7-1.53-2.54-2.3-.39-.36-.77-.74-1.16-1.11l-1.17-1.13A.73.73,0,0,0,28.13,20,7.4,7.4,0,0,0,27,21.11c-.58.77-.56.81.22,1.5.36.32.76.6,1.12.93s.89.83,1.32,1.27a5.12,5.12,0,0,1,.77.94.66.66,0,0,1,0,.63c-.59.63-1.23,1.21-1.85,1.81s-1.09,1-1.62,1.59a.73.73,0,0,1-1.06,0,9.18,9.18,0,0,0-1.66-1.64A2,2,0,0,1,24,28c-.47-.47-.92-1-1.41-1.42a.67.67,0,0,0-1,0c-.38.35-.73.74-1.11,1.1s-.48.75,0,1.16c.72.68,1.45,1.35,2.17,2l3.17,3c.21.2.38.43.59.62.37.34.77.64,1.13,1,.56.53,1.1,1.09,1.65,1.64.33.32.65.65,1,1S30.68,38.55,31,38.8Zm36.51-.45c.41-.35.73-.66,1.09-.92.56-.43,1.15-.82,1.7-1.26s.9-.8,1.35-1.2,1-.88,1.47-1.34.9-.88,1.36-1.31c.21-.2.45-.38.68-.57L76,31c.22-.2.45-.39.67-.6.56-.54,1.09-1.09,1.67-1.61.38-.34.51-.64.26-1.07A4,4,0,0,0,78,27a6.38,6.38,0,0,0-.82-.79.62.62,0,0,0-.55-.07,14.24,14.24,0,0,0-1.42,1.19c-.53.5-1,1-1.51,1.57a2.84,2.84,0,0,0-.47.48c-.39.7-.84.54-1.25.13-.56-.57-1.09-1.18-1.63-1.77-.2-.22-.39-.44-.6-.65a2.51,2.51,0,0,0-.6-.5.8.8,0,0,1-.34-1.34A19,19,0,0,1,70.19,24c.73-.69,1.49-1.35,2.23-2a.53.53,0,0,0-.13-.79C72.2,21.08,72,21,72,21c0-.43-.42-.58-.62-.88a.84.84,0,0,0-1.26-.2c-.33.27-.65.56-1,.84L67,22.69l-1.74,1.54c-.35.31-.72.59-1.07.9-.68.6-1.34,1.22-2,1.82-.32.29-.69.54-1,.85-.49.52-.93,1.08-1.42,1.6s-.4.57,0,1,.68.71,1,1.09.6.5,1.09.11c.3-.24.58-.49.86-.74l2.83-2.64c.52-.48.92-.43,1.35.14a3.22,3.22,0,0,0,.25.27c.88.95,1.78,1.89,2.65,2.85a.83.83,0,0,1-.12,1.25c-.29.22-.57.45-.83.7a5.2,5.2,0,0,1-.95.9,11.09,11.09,0,0,0-1.73,1.54.67.67,0,0,0-.09,1ZM74.36,73c-.6-.64-1.09-1.17-1.6-1.7a1.9,1.9,0,0,0-.63-.54c-.5-.17-.73-.61-1.1-.91a8,8,0,0,0-.68-.56c-.62-.4-.78-.69-.14-1.25.45-.4.81-.9,1.23-1.33.64-.67,1.29-1.33,2-2a.52.52,0,0,1,.45-.11,4.24,4.24,0,0,1,.83.54c.34.27.64.57,1,.86.71.63,1.44,1.24,2.13,1.9a.84.84,0,0,0,1.24,0c.33-.33.64-.69,1-1s.41-.63-.07-1a1.61,1.61,0,0,1-.2-.24,11.5,11.5,0,0,0-1.07-1.24c-.51-.45-1.12-.8-1.64-1.24-.9-.75-1.72-1.58-2.68-2.27s-1.92-1.63-2.87-2.46c-.18-.16-.32-.35-.51-.49-.5-.37-1-.67-1.5-1.07a.61.61,0,0,0-1,0c-.38.43-.67.94-1.08,1.33s-.26.54-.05.75c.51.48,1.07.9,1.61,1.35s1.35,1.13,2,1.68.33,1-.12,1.34a13.3,13.3,0,0,0-1.08,1c-.77.81-1.52,1.64-2.35,2.54l-.71-.64-.34-.29c-.19-.15-.38-.3-.56-.46s-.13-.24-.23-.32c-.77-.61-1.54-1.22-2.33-1.82-.13-.1-.41-.22-.47-.16-.49.42-1,.87-1.41,1.34A2.75,2.75,0,0,0,61,65a.79.79,0,0,0,.15.66,12.11,12.11,0,0,1,2,1.69.51.51,0,0,0,.1.09c.73.58,1.47,1.16,2.19,1.75s1.73,1.43,2.59,2.16c.67.57,1.32,1.15,2,1.72l1.88,1.58a.44.44,0,0,0,.68,0ZM28.42,68.08a1.53,1.53,0,0,1-.23.34q-1.23,1.06-2.48,2.1c-.44.37-.93.7-1.36,1.08a.84.84,0,0,0-.25,1.13,12.09,12.09,0,0,0,1.24,1.36c.13.12.51.07.72,0a3.1,3.1,0,0,0,.66-.52c.78-.64,1.56-1.27,2.34-1.9.42-.33.86-.64,1.28-1s1.1-1,1.67-1.41c.91-.73,1.85-1.44,2.77-2.16.6-.47,1.19-1,1.81-1.4s.76-.83.49-1.23A11,11,0,0,0,35.88,63,.55.55,0,0,0,35,63a10.74,10.74,0,0,1-1,.85c-.25.21-.47.46-.72.67-.45.38-.9.76-1.36,1.13a2.42,2.42,0,0,1-.59.41c-.18.07-.48.12-.6,0a11.92,11.92,0,0,1-1-1.06c-.77-.83-1.54-1.67-2.32-2.49-.34-.36-.38-.54,0-.85q1.07-.94,2.17-1.84c.47-.38,1-.74,1.43-1.11a.59.59,0,0,0,.16-.93c-.43-.52-.86-1-1.33-1.53a.53.53,0,0,0-.5-.06c-.63.41-1.24.84-1.83,1.3-.88.68-1.75,1.39-2.62,2.1-.68.56-1.35,1.14-2,1.71-.28.24-.55.49-.85.71-.72.52-1.48,1-2.16,1.55s-1,1.09-1.61,1.6a.48.48,0,0,0-.07.77,18.23,18.23,0,0,0,1.23,1.44.66.66,0,0,0,.62,0c.93-.65,1.84-1.33,2.73-2,.46-.36.88-.75,1.31-1.14s.77-.46,1.24,0c.24.25.42.57.65.83.49.55,1,1.08,1.48,1.64S28.07,67.63,28.42,68.08Z"/></svg>