<?xml version="1.0" encoding="utf-8"?>
<svg xmlns="http://www.w3.org/2000/svg" height="32" width="32" viewBox="0 0 32 32">
  <g>
    <path id="path1" transform="rotate(0,16,16) translate(0,0.699999809265137) scale(1,1)  " fill="#FFFFFF" d="M14.799988,9.800001L12.700012,9.999998 11.400024,17.900005 9.7000122,10.300001 7.7000122,10.300001 6.2000122,17.600002 5.0999756,10.499998 3.4000244,10.499998 5.2000122,20.499996 7.2000122,20.600002 8.7000122,13.499998 10.400024,20.799999 12.5,20.799999z M19.099976,3.4999994L31.599976,3.4999994C31.799988,3.4999994,32,3.7000116,32,3.9000086L32,26.700008C32,26.900005,31.799988,27.100002,31.599976,27.100002L19.099976,27.100002 19.099976,23.999996 29,23.999996 29,22.700008 19.099976,22.700008 19.099976,20.799999 29,20.799999 29,19.499996 19.099976,19.499996 19.099976,17.600002 29,17.600002 29,16.300001 19.099976,16.300001 19.099976,14.400007 29,14.400007 29,12.999998 19.099976,12.999998 19.099976,11.100004 29,11.100004 29,9.800001 19.099976,9.800001 19.099976,7.9000076 29,7.9000076 29,6.600005 19.099976,6.600005z M18.5,0L18.5,30.6 0,27.400005 0,3.1000055z" />
  </g>
</svg>

