<?xml version="1.0" encoding="UTF-8" standalone="no"?>
<!DOCTYPE svg PUBLIC "-//W3C//DTD SVG 1.1//EN" "http://www.w3.org/Graphics/SVG/1.1/DTD/svg11.dtd">
<!-- Generated by Microsoft Visio, SVG Export Record Book.svg Page-1 -->
<svg xmlns="http://www.w3.org/2000/svg" xmlns:xlink="http://www.w3.org/1999/xlink" xmlns:ev="http://www.w3.org/2001/xml-events"
		width="7.67222in" height="2.53472in" viewBox="0 0 552.4 182.5" xml:space="preserve" color-interpolation-filters="sRGB"
		class="st10">
	<style type="text/css">
	<![CDATA[
		.st1 {fill:url(#grad0-5);stroke:#5e6e44;stroke-linecap:butt;stroke-width:1.25}
		.st2 {fill:#a53010;stroke:#5e6e44;stroke-linecap:butt;stroke-width:1.25}
		.st3 {fill:#000000;font-family:Franklin Gothic Book;font-size:1.00001em;font-weight:bold}
		.st4 {font-family:Symbol;font-size:0.83333em;font-weight:normal}
		.st5 {font-size:0.83333em;font-weight:normal}
		.st6 {fill:#000000;font-family:Symbol;font-size:0.833336em}
		.st7 {font-size:1em}
		.st8 {font-family:Franklin Gothic Book;font-size:1em}
		.st9 {fill:none;stroke:none;stroke-linecap:butt;stroke-width:1.25}
		.st10 {fill:none;fill-rule:evenodd;font-size:12px;overflow:visible;stroke-linecap:square;stroke-miterlimit:3}
	]]>
	</style>

	<defs id="Patterns_And_Gradients">
		<linearGradient id="grad0-5" x1="0" y1="0" x2="1" y2="0" gradientTransform="rotate(90 0.5 0.5)">
			<stop offset="0.02" stop-color="#e5e7e2" stop-opacity="1"/>
			<stop offset="0.34" stop-color="#d5d9d0" stop-opacity="1"/>
			<stop offset="0.96" stop-color="#a6b09a" stop-opacity="1"/>
		</linearGradient>
	</defs>
	<g>
		<title>Page-1</title>
		<g id="group1-1" transform="translate(222.6,-72)">
			<title>Block</title>
			<desc>Project Project Description Size &#38; Scope</desc>
			<g id="shape2-2">
				<title>Sheet.2</title>
			</g>
			<g id="shape3-6">
				<title>Sheet.3</title>
				<path d="M108 110.5 L108 182.5 L111.6 186.1 L111.6 128.5 L108 110.5 ZM0 182.5 L108 182.5 L111.6 186.1 L25.2 186.1
							 L0 182.5 Z" class="st1"/>
			</g>
			<g id="shape4-9">
				<title>Sheet.4</title>
				<rect x="0" y="110.5" width="108" height="72" class="st2"/>
			</g>
			<g id="shape1-11">
				<text x="4" y="137.81" class="st3">Project <tspan x="4" dy="1.282em" class="st4">·</tspan><tspan class="st4"> </tspan><tspan
							class="st5">Project Description </tspan><tspan x="4" dy="1.229em" class="st4">·</tspan><tspan
							class="st4"> </tspan><tspan class="st5">Size &#38; Scope</tspan></text>			</g>
		</g>
		<g id="group11-19" transform="translate(87.6,-36)">
			<title>Arrow, right</title>
			<desc>Goals</desc>
			<g id="shape12-20">
				<title>Sheet.12</title>
			</g>
			<g id="shape13-23">
				<title>Sheet.13</title>
			</g>
			<g id="shape14-26">
				<title>Sheet.14</title>
			</g>
			<g id="shape15-29">
				<title>Sheet.15</title>
			</g>
			<g id="shape16-32">
				<title>Sheet.16</title>
				<path d="M81 74.5 L108 128.5 L124.12 128.25 L102.52 85.05 L81 74.5 ZM81 182.5 L108 128.5 L124.12 128.25 L102.52 171.45
							 L81 182.5 Z" class="st1"/>
			</g>
			<g id="shape17-35">
				<title>Sheet.17</title>
				<path d="M0 155.5 L81 155.5 L81 182.5 L108 128.5 L81 74.5 L81 101.5 L0 101.5 L0 155.5 Z" class="st1"/>
			</g>
			<g id="shape11-38">
				<text x="4" y="131.57" class="st6"><tspan class="st7">·</tspan> <tspan class="st8">Goals</tspan></text>			</g>
		</g>
		<g id="shape18-42" transform="translate(60.6,-126)">
			<title>Sheet.18</title>
			<desc>Looking Ahead</desc>
			<rect x="0" y="164.5" width="108" height="18" class="st9"/>
			<text x="16.73" y="177.1" class="st3">Looking Ahead</text>		</g>
		<g id="shape19-45" transform="translate(78.6,-76.3308) scale(-1,1)">
			<title>Sheet.19</title>
			<rect x="0" y="155.162" width="60.6" height="27.3383" class="st9"/>
			<svg viewBox="0 0 278.5 128.47" enable-background="new" color-interpolation-filters="sRGB" height="27.3383"
					preserveAspectRatio="none" width="60.6" x="0" y="155.162">
				<defs>
					<clipPath id="mfid1">
						<rect id="mfid2" x="0" y="0" width="278.5" height="128.47"/>
					</clipPath>
				</defs>
				<g clip-path="url(#mfid1)">
					<g transform="matrix(0.02831, 0, 0, 0.028244, 0, 0)">
						<g stroke-width="121.75" stroke="none" fill="#000000">
							<path
									d="M3814,4449 L3807,4426 L3789,4401 L3773,4388 L3741,4373 L3680,4365 L3639,4364 L3607,4363 L3540,4354 L3475,4337 L3421,4314 L3402,4302 L3382,4289 L3328,4266 L3265,4249 L3198,4239 L3167,4238 L3134,4236 L3030,4217 L2820,4163 L2503,4064 L2307,3991 L2219,3950 L2196,3935 L2179,3925 L2106,3903 L1997,3880 L1864,3858 L1793,3849 L1663,3833 L1523,3807 L1456,3789 L1412,3768 L1388,3746 L1385,3721 L1400,3693 L1415,3677 L1427,3667 L1455,3650 L1492,3638 L1536,3631 L1620,3628 L1773,3645 L1980,3684 L2248,3747 L2775,3888 L3249,4025 L3472,4089 L3829,4186 L4090,4248 L4227,4271 L4297,4279 L4325,4279 L4349,4279 L4382,4274 L4397,4267 L4395,4257 L4366,4240 L4279,4218 L4218,4210 L4167,4204 L4068,4186 L3970,4162 L3876,4131 L3784,4094 L3695,4051 L3608,4001 L3525,3946 L3445,3884 L3369,3817 L3295,3744 L3225,3665 L3159,3581 L3097,3491 L3038,3395 L2983,3295 L2958,3242 L2916,3153 L2846,2978 L2793,2807 L2755,2638 L2734,2470 L2728,2301 L2737,2131 L2761,1957 L2780,1868 L2794,1804 L2815,1688 L2826,1596 L2827,1539 L2823,1530 L2820,1527 L2809,1528 L2786,1538 L2744,1569 L2694,1614 L2667,1642 L2639,1671 L2589,1718 L2545,1752 L2510,1771 L2484,1777 L2467,1769 L2460,1746 L2465,1709 L2472,1684 L2476,1670 L2477,1656 L2462,1660 L2417,1712 L2353,1800 L2240,1971 L2135,2151 L2083,2254 L2067,2293 L2052,2335 L2024,2447 L1998,2578 L1979,2713 L1973,2777 L1966,2867 L1965,2974 L1969,3037 L1978,3096 L1993,3155 L2028,3250 L2061,3327 L2083,3379 L2118,3472 L2138,3544 L2142,3578 L2139,3591 L2135,3593 L2125,3595 L2093,3589 L2027,3561 L1921,3498 L1847,3443 L1808,3407 L1793,3390 L1782,3376 L1762,3342 L1747,3305 L1738,3270 L1737,3254 L1736,3234 L1727,3201 L1712,3176 L1691,3158 L1667,3150 L1641,3151 L1614,3161 L1588,3182 L1575,3197 L1559,3220 L1542,3255 L1543,3285 L1564,3316 L1582,3334 L1606,3359 L1637,3413 L1645,3452 L1645,3478 L1638,3501 L1626,3521 L1617,3530 L1608,3538 L1586,3541 L1562,3534 L1537,3517 L1513,3493 L1493,3463 L1478,3430 L1469,3394 L1469,3376 L1468,3347 L1466,3321 L1463,3312 L1453,3313 L1427,3342 L1406,3369 L1388,3394 L1368,3430 L1368,3451 L1374,3464 L1392,3483 L1413,3498 L1433,3513 L1450,3531 L1453,3543 L1445,3562 L1408,3594 L1377,3615 L1344,3637 L1294,3660 L1262,3663 L1240,3658 L1203,3640 L1170,3621 L1139,3601 L1097,3580 L1080,3579 L1073,3584 L1068,3602 L1068,3621 L1067,3635 L1053,3658 L1028,3674 L991,3683 L944,3685 L888,3680 L824,3669 L754,3651 L716,3639 L675,3624 L631,3603 L611,3588 L597,3570 L588,3550 L584,3513 L587,3480 L590,3464 L600,3433 L617,3404 L643,3375 L700,3328 L823,3255 L910,3209 L1041,3140 L1186,3056 L1262,3005 L1326,2953 L1382,2897 L1462,2799 L1520,2714 L1572,2633 L1621,2543 L1637,2497 L1641,2463 L1630,2438 L1607,2423 L1570,2416 L1546,2415 L1533,2416 L1507,2421 L1483,2430 L1460,2445 L1427,2478 L1382,2546 L1358,2592 L1339,2628 L1295,2694 L1245,2752 L1189,2803 L1126,2847 L1056,2883 L980,2912 L896,2934 L851,2942 L803,2951 L710,2972 L623,2999 L543,3030 L472,3065 L412,3103 L363,3143 L328,3184 L317,3205 L306,3228 L290,3278 L273,3359 L269,3440 L272,3491 L280,3536 L294,3574 L303,3589 L313,3602 L351,3632 L405,3662 L470,3692 L578,3732 L685,3760 L747,3770 L774,3771 L821,3772 L919,3786 L953,3796 L968,3803 L993,3821 L1010,3843 L1020,3867 L1022,3892 L1017,3914 L1004,3931 L982,3942 L968,3944 L862,3946 L489,3933 L387,3925 L372,3922 L341,3912 L292,3887 L226,3838 L163,3774 L105,3701 L57,3622 L21,3543 L2,3467 L0,3432 L1,3406 L15,3345 L40,3278 L75,3207 L116,3137 L162,3071 L211,3014 L259,2968 L283,2952 L309,2937 L394,2902 L504,2864 L627,2828 L689,2813 L753,2797 L869,2758 L968,2710 L1056,2650 L1133,2575 L1203,2483 L1269,2372 L1332,2238 L1364,2161 L1469,1901 L1576,1653 L1644,1515 L1664,1474 L1706,1402 L1745,1347 L1776,1316 L1786,1313 L1795,1312 L1806,1299 L1811,1276 L1807,1246 L1802,1229 L1796,1207 L1793,1175 L1803,1154 L1826,1145 L1844,1144 L1858,1143 L1884,1130 L1902,1108 L1913,1077 L1913,1059 L1914,1042 L1925,1011 L1943,988 L1967,976 L1980,974 L1994,973 L2018,962 L2036,942 L2047,915 L2048,900 L2050,884 L2072,848 L2111,811 L2163,777 L2193,763 L2229,745 L2286,708 L2324,664 L2345,613 L2350,582 L2355,548 L2365,512 L2375,497 L2388,487 L2405,483 L2439,484 L2471,491 L2497,496 L2553,495 L2612,481 L2672,455 L2702,437 L2783,386 L2963,294 L3162,214 L3377,145 L3606,89 L3846,46 L4094,16 L4348,1 L4476,0 L4630,1 L4884,12 L5121,41 L5390,94 L5556,132 L5673,161 L5905,222 L6112,284 L6270,337 L6319,358 L6764,564 L7122,723 L7250,773 L7287,784 L7309,792 L7369,823 L7439,868 L7510,922 L7544,951 L7582,984 L7697,1068 L7935,1225 L8336,1464 L8652,1639 L8852,1743 L8944,1789 L9086,1858 L9340,1987 L9412,2027 L9442,2045 L9498,2089 L9547,2138 L9587,2190 L9616,2242 L9634,2291 L9639,2335 L9628,2371 L9617,2385 L9602,2400 L9581,2433 L9570,2468 L9569,2503 L9577,2537 L9594,2570 L9620,2599 L9655,2623 L9675,2633 L9699,2644 L9739,2672 L9771,2708 L9795,2751 L9812,2802 L9820,2861 L9821,2929 L9814,3006 L9808,3048 L9801,3084 L9783,3148 L9760,3202 L9728,3248 L9688,3287 L9638,3320 L9575,3348 L9500,3373 L9456,3385 L9367,3407 L9266,3425 L9215,3429 L9176,3426 L9148,3415 L9131,3397 L9123,3371 L9122,3355 L9123,3346 L9130,3327 L9152,3296 L9203,3253 L9278,3208 L9325,3186 L9366,3166 L9435,3126 L9483,3090 L9501,3068 L9504,3057 L9502,3053 L9498,3048 L9486,3042 L9460,3039 L9408,3048 L9344,3068 L9272,3097 L9196,3133 L9120,3176 L9049,3223 L9017,3248 L8981,3276 L8909,3327 L8840,3370 L8774,3405 L8712,3432 L8654,3449 L8603,3457 L8557,3456 L8538,3451 L8514,3445 L8472,3445 L8434,3460 L8399,3491 L8382,3513 L8367,3532 L8322,3577 L8229,3658 L8062,3785 L7865,3921 L7658,4055 L7460,4174 L7290,4265 L7194,4307 L7147,4320 L7131,4321 L7114,4321 L7089,4315 L7078,4304 L7078,4289 L7090,4269 L7113,4246 L7168,4206 L7220,4175 L7290,4136 L7434,4046 L7578,3946 L7722,3837 L7863,3723 L7999,3605 L8127,3486 L8246,3368 L8353,3254 L8445,3146 L8522,3047 L8580,2958 L8617,2882 L8629,2835 L8630,2809 L8625,2788 L8613,2771 L8593,2760 L8567,2754 L8551,2754 L8541,2754 L8520,2760 L8489,2779 L8447,2824 L8405,2891 L8384,2933 L8353,2996 L8274,3124 L8176,3252 L8060,3382 L7926,3511 L7774,3641 L7606,3770 L7420,3898 L7321,3962 L7217,4026 L7027,4140 L6872,4226 L6771,4275 L6751,4279 L6734,4281 L6671,4298 L6533,4346 L6425,4390 L6163,4502 L5220,4478 L5010,4472 L4651,4456 L4380,4438 L4248,4422 L4195,4411 L4181,4405 L4162,4396 L4123,4383 L4089,4378 L4064,4382 L4057,4387 L4052,4394 L4050,4408 L4057,4421 L4072,4433 L4083,4437 L4099,4443 L4119,4458 L4124,4473 L4117,4489 L4098,4504 L4069,4518 L4032,4527 L3988,4533 L3963,4533 L3931,4533 L3881,4523 L3845,4502 L3821,4470 L3814,4449 Z M6246,4241 L6337,4216 L6511,4165 L6677,4110 L6834,4051 L6982,3989 L7123,3922 L7256,3851 L7382,3775 L7500,3695 L7611,3611 L7716,3521 L7813,3427 L7905,3327 L7990,3222 L8070,3112 L8143,2996 L8178,2935 L8235,2833 L8288,2723 L8309,2670 L8316,2632 L8310,2606 L8293,2592 L8263,2586 L8244,2586 L8234,2587 L8213,2596 L8174,2625 L8114,2693 L8046,2789 L8010,2848 L7963,2925 L7848,3081 L7716,3238 L7569,3390 L7412,3534 L7250,3666 L7087,3781 L6929,3876 L6853,3913 L6783,3944 L6628,4006 L6461,4064 L6293,4116 L6133,4160 L5988,4192 L5869,4211 L5803,4215 L5771,4212 L5760,4209 L5740,4201 L5713,4183 L5703,4164 L5707,4146 L5726,4128 L5758,4112 L5803,4098 L5859,4088 L5891,4085 L5927,4081 L5996,4069 L6058,4053 L6104,4035 L6118,4026 L6133,4016 L6190,3990 L6315,3947 L6414,3921 L6479,3903 L6612,3859 L6746,3805 L6879,3741 L7010,3669 L7135,3590 L7253,3505 L7362,3416 L7412,3370 L7458,3326 L7552,3221 L7647,3104 L7738,2981 L7819,2859 L7886,2746 L7936,2647 L7958,2587 L7965,2555 L7966,2542 L7965,2514 L7957,2473 L7942,2448 L7922,2439 L7897,2446 L7869,2469 L7839,2507 L7808,2560 L7793,2592 L7764,2651 L7676,2795 L7561,2958 L7430,3127 L7296,3288 L7167,3429 L7056,3536 L6993,3584 L6961,3600 L6949,3601 L6929,3600 L6909,3591 L6901,3581 L6897,3561 L6908,3522 L6936,3471 L6982,3408 L7083,3291 L7176,3195 L7227,3143 L7325,3033 L7417,2919 L7500,2806 L7572,2697 L7630,2597 L7671,2507 L7694,2433 L7696,2404 L7696,2388 L7691,2362 L7681,2344 L7667,2334 L7651,2332 L7634,2338 L7617,2353 L7601,2376 L7595,2391 L7579,2427 L7533,2511 L7442,2652 L7338,2790 L7271,2868 L7213,2928 L7179,2955 L7162,2963 L7155,2964 L7138,2964 L7113,2957 L7102,2940 L7105,2911 L7123,2867 L7157,2807 L7237,2685 L7318,2570 L7357,2514 L7416,2421 L7442,2364 L7452,2330 L7453,2300 L7448,2272 L7434,2247 L7412,2223 L7365,2189 L7268,2144 L7134,2095 L7049,2068 L6904,2019 L6670,1933 L6619,1908 L6571,1884 L6356,1794 L6077,1686 L5823,1593 L5741,1566 L5629,1532 L5738,1500 L5773,1490 L5812,1475 L5818,1465 L5812,1459 L5788,1447 L5760,1436 L5721,1423 L5631,1404 L5595,1401 L5570,1401 L5547,1405 L5540,1412 L5539,1430 L5559,1478 L5579,1515 L5599,1554 L5636,1649 L5668,1760 L5696,1886 L5719,2025 L5736,2174 L5748,2333 L5753,2500 L5754,2586 L5753,2718 L5743,2919 L5725,3036 L5708,3108 L5673,3215 L5640,3295 L5618,3349 L5584,3443 L5564,3515 L5561,3547 L5564,3558 L5568,3559 L5579,3560 L5596,3567 L5604,3582 L5605,3604 L5593,3648 L5549,3727 L5515,3775 L5497,3800 L5472,3841 L5460,3872 L5460,3890 L5471,3897 L5493,3890 L5523,3871 L5561,3837 L5584,3814 L5601,3797 L5637,3772 L5672,3757 L5702,3755 L5713,3760 L5735,3772 L5787,3791 L5807,3795 L5864,3807 L5952,3833 L5972,3840 L6006,3860 L6030,3884 L6046,3909 L6051,3934 L6047,3955 L6031,3972 L6004,3982 L5985,3983 L5972,3982 L5948,3974 L5929,3959 L5919,3940 L5918,3930 L5917,3916 L5913,3902 L5904,3903 L5889,3920 L5879,3934 L5869,3946 L5835,3968 L5787,3985 L5733,3996 L5705,3998 L5648,4003 L5577,4018 L5544,4030 L5536,4036 L5515,4054 L5486,4066 L5469,4066 L5454,4061 L5442,4050 L5434,4033 L5429,4011 L5429,3997 L5429,3976 L5424,3957 L5418,3952 L5403,3955 L5366,3982 L5337,4006 L5310,4029 L5270,4055 L5248,4060 L5236,4057 L5218,4042 L5207,4025 L5195,4007 L5178,3992 L5166,3988 L5147,3990 L5111,4013 L5087,4033 L5068,4048 L5009,4082 L4933,4117 L4849,4150 L4808,4164 L4768,4177 L4702,4202 L4651,4227 L4616,4251 L4596,4274 L4593,4295 L4606,4314 L4637,4330 L4659,4337 L4683,4341 L4800,4347 L5082,4350 L5318,4346 L5470,4342 L5731,4326 L5953,4301 L6151,4264 L6246,4241 Z M4477,3993 L4453,3887 L4412,3674 L4383,3492 L4374,3399 L4375,3365 L4378,3359 L4389,3350 L4410,3346 L4431,3357 L4453,3385 L4475,3430 L4499,3493 L4537,3617 L4564,3727 L4583,3807 L4621,3934 L4657,4020 L4682,4055 L4698,4066 L4705,4067 L4723,4066 L4765,4057 L4840,4030 L4948,3973 L5023,3921 L5066,3886 L5083,3868 L5096,3854 L5115,3830 L5124,3806 L5122,3780 L5105,3747 L5073,3706 L4995,3622 L4914,3540 L4852,3477 L4764,3378 L4726,3323 L4711,3294 L4706,3271 L4709,3254 L4715,3247 L4722,3242 L4739,3238 L4762,3242 L4790,3255 L4843,3289 L4937,3368 L4997,3423 L5093,3511 L5207,3607 L5255,3641 L5266,3644 L5274,3641 L5298,3614 L5346,3537 L5417,3399 L5456,3303 L5471,3255 L5473,3239 L5472,3234 L5459,3221 L5421,3198 L5337,3160 L5225,3119 L5162,3099 L5091,3076 L4976,3033 L4896,2993 L4862,2966 L4851,2949 L4851,2942 L4850,2916 L4855,2893 L4868,2887 L4910,2892 L5034,2931 L5140,2966 L5246,3000 L5418,3046 L5455,3050 L5466,3049 L5489,3028 L5511,2993 L5531,2948 L5546,2899 L5556,2849 L5558,2806 L5551,2773 L5543,2763 L5532,2758 L5470,2745 L5310,2724 L5172,2714 L5095,2708 L4975,2693 L4893,2676 L4860,2662 L4849,2653 L4848,2644 L4857,2636 L4888,2624 L4965,2611 L5083,2602 L5159,2601 L5296,2598 L5440,2588 L5507,2577 L5553,2562 L5578,2542 L5585,2516 L5577,2484 L5567,2465 L5559,2452 L5544,2432 L5525,2417 L5500,2408 L5447,2402 L5329,2412 L5242,2423 L5126,2437 L4976,2446 L4906,2446 L4887,2442 L4876,2440 L4857,2440 L4841,2447 L4828,2461 L4811,2497 L4792,2581 L4783,2642 L4773,2702 L4745,2817 L4706,2926 L4659,3026 L4605,3115 L4544,3191 L4479,3252 L4411,3294 L4377,3307 L4336,3319 L4258,3333 L4184,3335 L4112,3325 L4041,3303 L3972,3268 L3902,3220 L3831,3158 L3795,3122 L3735,3058 L3662,2964 L3621,2901 L3585,2837 L3555,2769 L3517,2658 L3496,2575 L3488,2539 L3474,2504 L3463,2490 L3448,2482 L3430,2481 L3392,2488 L3356,2501 L3331,2509 L3268,2524 L3197,2535 L3126,2541 L3095,2542 L3061,2543 L3003,2552 L2958,2568 L2928,2592 L2920,2607 L2914,2624 L2914,2652 L2928,2675 L2955,2691 L2996,2702 L3051,2707 L3158,2704 L3250,2694 L3303,2688 L3385,2683 L3441,2688 L3463,2697 L3470,2706 L3471,2711 L3471,2720 L3467,2736 L3458,2749 L3439,2762 L3390,2781 L3267,2815 L3171,2838 L3128,2849 L3059,2875 L3010,2903 L2989,2925 L2982,2940 L2982,2948 L2982,2967 L2993,2997 L3015,3019 L3047,3031 L3089,3033 L3142,3027 L3205,3011 L3277,2986 L3318,2969 L3402,2933 L3505,2893 L3541,2886 L3553,2891 L3560,2911 L3559,2934 L3558,2940 L3549,2954 L3521,2979 L3461,3019 L3381,3060 L3336,3080 L3288,3101 L3207,3144 L3149,3186 L3124,3215 L3116,3232 L3115,3240 L3116,3261 L3127,3294 L3148,3316 L3178,3328 L3216,3328 L3260,3318 L3311,3297 L3366,3265 L3395,3245 L3455,3202 L3537,3151 L3574,3139 L3590,3142 L3600,3154 L3604,3174 L3605,3188 L3602,3201 L3577,3240 L3533,3290 L3474,3344 L3441,3372 L3278,3502 L3363,3614 L3399,3659 L3446,3708 L3469,3725 L3475,3727 L3483,3724 L3515,3693 L3591,3601 L3653,3517 L3685,3474 L3748,3398 L3804,3340 L3847,3308 L3860,3305 L3876,3305 L3898,3310 L3909,3323 L3910,3344 L3890,3396 L3818,3515 L3759,3603 L3602,3834 L3697,3908 L3732,3934 L3795,3968 L3852,3981 L3888,3977 L3910,3968 L3930,3955 L3948,3936 L3971,3900 L3992,3834 L4003,3749 L4004,3699 L4005,3670 L4013,3612 L4026,3556 L4044,3505 L4065,3462 L4088,3430 L4111,3413 L4133,3411 L4143,3419 L4148,3425 L4157,3443 L4164,3483 L4162,3565 L4148,3678 L4135,3748 L4125,3807 L4111,3903 L4108,3977 L4116,4030 L4132,4059 L4147,4074 L4177,4091 L4233,4103 L4309,4109 L4355,4109 L4404,4109 L4451,4105 L4472,4098 L4484,4086 L4489,4069 L4486,4031 L4477,3993 Z M9022,3066 L9099,3029 L9185,2978 L9225,2948 L9250,2923 L9260,2903 L9253,2889 L9228,2882 L9209,2881 L9187,2883 L9123,2899 L8999,2945 L8812,3033 L8696,3100 L8642,3139 L8626,3155 L8609,3176 L8585,3213 L8573,3243 L8573,3266 L8583,3279 L8604,3283 L8633,3276 L8671,3258 L8693,3243 L8744,3210 L8924,3114 L9022,3066 Z M9479,2739 L9478,2733 L9471,2720 L9451,2700 L9405,2671 L9345,2645 L9311,2635 L9247,2615 L9097,2559 L8925,2485 L8738,2395 L8541,2293 L8339,2182 L8139,2065 L7946,1944 L7854,1883 L7725,1797 L7466,1635 L7210,1488 L6958,1356 L6712,1239 L6475,1140 L6247,1058 L6031,995 L5929,971 L5760,934 L5522,873 L5417,836 L5376,813 L5357,792 L5359,772 L5369,761 L5377,756 L5407,750 L5486,754 L5669,789 L5950,857 L6137,906 L6231,933 L6455,1015 L6711,1124 L6984,1253 L7261,1395 L7530,1544 L7776,1692 L7987,1834 L8072,1899 L8112,1930 L8200,1992 L8344,2083 L8551,2196 L8762,2295 L8964,2375 L9144,2431 L9254,2453 L9315,2458 L9362,2453 L9394,2439 L9404,2428 L9411,2414 L9415,2387 L9399,2357 L9362,2323 L9299,2281 L9206,2229 L9007,2128 L8816,2037 L8695,1979 L8400,1824 L8077,1645 L7764,1462 L7627,1377 L7503,1301 L7259,1157 L7027,1029 L6812,917 L6619,826 L6454,757 L6323,715 L6253,702 L6218,702 L6206,706 L6191,710 L6158,709 L6125,697 L6095,677 L6083,664 L6068,649 L6002,613 L5903,573 L5784,534 L5721,517 L5658,500 L5544,463 L5454,426 L5411,402 L5395,388 L5392,382 L5388,368 L5392,350 L5412,342 L5449,345 L5474,351 L5512,359 L5541,357 L5542,348 L5536,342 L5525,334 L5484,317 L5393,291 L5320,277 L5266,268 L5199,261 L5178,266 L5176,274 L5186,294 L5204,314 L5221,334 L5237,361 L5231,376 L5201,381 L5175,381 L5133,380 L5088,369 L5067,358 L5055,343 L5050,325 L5055,305 L5068,281 L5079,269 L5092,253 L5100,236 L5100,227 L5090,218 L5056,212 L5029,212 L5004,212 L4970,220 L4952,235 L4950,259 L4956,275 L4961,292 L4960,311 L4954,321 L4937,331 L4896,338 L4867,339 L4837,338 L4796,331 L4779,321 L4773,311 L4772,292 L4778,275 L4782,262 L4785,240 L4782,222 L4771,213 L4764,212 L4744,210 L4681,195 L4649,184 L4627,177 L4606,174 L4597,177 L4590,189 L4596,225 L4605,252 L4614,279 L4619,315 L4611,329 L4601,334 L4578,335 L4554,331 L4537,326 L4508,309 L4488,284 L4479,254 L4479,237 L4480,224 L4478,203 L4468,188 L4446,179 L4388,172 L4239,179 L4123,189 L4027,197 L3840,223 L3663,258 L3497,302 L3344,354 L3207,413 L3086,479 L2984,551 L2941,589 L2906,623 L2847,687 L2807,739 L2792,766 L2790,777 L2792,780 L2802,788 L2834,798 L2899,806 L2995,800 L3049,785 L3069,771 L3071,763 L3071,751 L3083,733 L3106,724 L3142,723 L3219,737 L3375,787 L3479,826 L3535,847 L3637,881 L3719,903 L3759,908 L3775,907 L3779,905 L3784,899 L3786,887 L3781,876 L3769,866 L3760,862 L3723,848 L3662,814 L3620,780 L3608,758 L3609,745 L3613,740 L3617,738 L3637,737 L3688,744 L3793,768 L3925,804 L3998,827 L4074,850 L4217,887 L4337,910 L4403,916 L4435,915 L4446,912 L4465,907 L4511,904 L4559,909 L4605,921 L4624,930 L4645,939 L4710,958 L4792,973 L4882,984 L4927,987 L5016,994 L5131,1012 L5184,1026 L5198,1033 L5211,1040 L5242,1048 L5277,1050 L5311,1046 L5326,1041 L5342,1036 L5380,1038 L5421,1050 L5461,1071 L5478,1084 L5496,1098 L5536,1119 L5577,1131 L5616,1132 L5632,1128 L5648,1123 L5692,1123 L5744,1131 L5797,1148 L5822,1159 L5881,1186 L6054,1254 L6141,1283 L6416,1375 L6676,1471 L6842,1541 L6942,1585 L7060,1636 L7242,1707 L7276,1715 L7286,1717 L7315,1727 L7376,1759 L7490,1831 L7632,1932 L7713,1993 L7783,2046 L7933,2148 L8097,2249 L8270,2345 L8450,2436 L8634,2521 L8821,2598 L9008,2665 L9100,2695 L9228,2735 L9387,2781 L9445,2789 L9466,2785 L9476,2773 L9478,2752 L9479,2739 Z M1825,2500 L1825,2483 L1832,2451 L1844,2422 L1860,2400 L1869,2394 L1878,2387 L1894,2364 L1906,2333 L1913,2297 L1914,2278 L1913,2256 L1909,2225 L1902,2211 L1891,2214 L1868,2248 L1827,2354 L1801,2434 L1789,2473 L1773,2540 L1768,2586 L1772,2604 L1777,2607 L1782,2605 L1790,2598 L1806,2577 L1817,2549 L1824,2516 L1825,2500 Z M3269,2373 L3302,2373 L3346,2367 L3363,2359 L3367,2352 L3363,2338 L3352,2327 L3339,2317 L3295,2299 L3198,2276 L3046,2257 L2947,2257 L2900,2264 L2885,2271 L2873,2280 L2864,2301 L2869,2325 L2888,2349 L2915,2371 L2950,2388 L2988,2399 L3027,2401 L3045,2397 L3089,2388 L3211,2375 L3269,2373 Z M5339,2268 L5393,2254 L5471,2226 L5508,2204 L5524,2187 L5535,2169 L5540,2148 L5540,2137 L5539,2113 L5530,2088 L5518,2076 L5489,2065 L5423,2062 L5375,2064 L5339,2067 L5253,2084 L5159,2111 L5061,2146 L4968,2185 L4885,2226 L4820,2265 L4788,2292 L4775,2309 L4772,2316 L4771,2321 L4774,2330 L4788,2339 L4827,2346 L4885,2346 L5003,2335 L5214,2297 L5339,2268 Z M1669,2161 L1673,2152 L1673,2137 L1661,2125 L1641,2119 L1627,2118 L1613,2119 L1588,2125 L1569,2137 L1558,2152 L1558,2161 L1558,2169 L1564,2185 L1576,2196 L1591,2203 L1599,2203 L1608,2203 L1627,2196 L1655,2178 L1669,2161 Z M7634,2138 L7602,2116 L7545,2086 L7502,2076 L7483,2081 L7477,2091 L7476,2099 L7477,2103 L7492,2115 L7532,2138 L7605,2172 L7675,2196 L7699,2199 L7702,2198 L7697,2189 L7668,2163 L7634,2138 Z M3160,2079 L3158,2069 L3144,2050 L3120,2034 L3088,2019 L3033,2004 L2979,2001 L2948,2007 L2937,2013 L2928,2019 L2915,2034 L2910,2052 L2912,2071 L2917,2079 L2924,2088 L2951,2103 L2988,2112 L3029,2117 L3072,2117 L3110,2112 L3140,2103 L3158,2088 L3160,2079 Z M4348,1981 L4409,1916 L4547,1752 L4601,1679 L4626,1645 L4689,1575 L4759,1512 L4828,1462 L4858,1446 L4887,1431 L4938,1400 L4978,1369 L5008,1339 L5024,1314 L5026,1296 L5011,1288 L4979,1292 L4954,1300 L4906,1319 L4807,1366 L4707,1423 L4610,1488 L4518,1560 L4434,1637 L4359,1716 L4297,1795 L4273,1834 L4219,1924 L4161,2032 L4141,2077 L4139,2087 L4139,2098 L4146,2113 L4160,2118 L4180,2114 L4222,2092 L4300,2028 L4348,1981 Z M2114,1864 L2158,1779 L2198,1688 L2207,1655 L2204,1652 L2196,1655 L2170,1682 L2112,1758 L2026,1891 L1977,1979 L1960,2021 L1958,2033 L1958,2048 L1963,2068 L1972,2075 L1986,2068 L2015,2034 L2075,1937 L2114,1864 Z M5163,1961 L5240,1932 L5358,1880 L5417,1845 L5445,1823 L5464,1803 L5473,1783 L5474,1774 L5473,1753 L5464,1720 L5444,1699 L5413,1689 L5369,1692 L5311,1706 L5198,1748 L5097,1794 L4984,1847 L4832,1925 L4768,1967 L4745,1990 L4735,2010 L4737,2029 L4742,2038 L4749,2048 L4765,2063 L4787,2071 L4819,2071 L4888,2057 L5045,2004 L5163,1961 Z M7343,2013 L7340,2005 L7311,1982 L7223,1934 L7034,1851 L6795,1757 L6536,1664 L6287,1582 L6077,1521 L5966,1497 L5919,1493 L5906,1495 L5901,1497 L5899,1503 L5909,1514 L5949,1533 L6012,1554 L6052,1565 L6252,1619 L6453,1678 L6522,1700 L6644,1742 L6861,1829 L7120,1943 L7261,2005 L7333,2030 L7343,2023 L7343,2013 Z M3071,1822 L3070,1813 L3059,1798 L3041,1786 L3017,1780 L3004,1779 L2990,1780 L2966,1786 L2948,1798 L2938,1813 L2937,1822 L2938,1830 L2948,1846 L2966,1857 L2990,1864 L3004,1864 L3017,1864 L3041,1857 L3059,1846 L3070,1830 L3071,1822 Z M5035,1670 L5156,1605 L5275,1537 L5325,1504 L5354,1477 L5363,1455 L5357,1435 L5337,1414 L5323,1402 L5313,1395 L5293,1384 L5271,1379 L5247,1381 L5202,1393 L5120,1434 L5065,1467 L4981,1520 L4838,1618 L4734,1703 L4688,1752 L4674,1777 L4673,1787 L4673,1798 L4681,1813 L4698,1819 L4727,1816 L4791,1793 L4934,1724 L5035,1670 Z M1847,1737 L1851,1728 L1850,1713 L1838,1702 L1816,1695 L1802,1695 L1788,1695 L1766,1702 L1754,1713 L1753,1728 L1758,1737 L1770,1754 L1794,1777 L1802,1779 L1811,1777 L1835,1754 L1847,1737 Z M2003,1500 L2002,1496 L1991,1490 L1962,1484 L1936,1483 L1922,1483 L1898,1490 L1880,1501 L1870,1516 L1869,1524 L1870,1532 L1880,1543 L1898,1547 L1922,1545 L1936,1541 L1962,1530 L1999,1508 L2003,1500 Z M2181,1356 L2179,1347 L2166,1332 L2141,1320 L2110,1314 L2092,1313 L2073,1314 L2042,1320 L2017,1332 L2004,1347 L2003,1356 L2004,1364 L2017,1380 L2042,1391 L2073,1398 L2092,1398 L2110,1398 L2141,1391 L2166,1380 L2179,1364 L2181,1356 Z M2537,1059 L2536,1051 L2525,1035 L2506,1024 L2481,1017 L2467,1017 L2453,1017 L2433,1024 L2421,1035 L2421,1051 L2425,1059 L2439,1076 L2467,1095 L2486,1101 L2495,1102 L2503,1101 L2518,1095 L2530,1083 L2536,1068 L2537,1059 Z M3048,974 L3042,966 L3022,951 L2996,939 L2968,933 L2954,932 L2941,933 L2921,939 L2910,951 L2910,966 L2915,974 L2921,983 L2941,998 L2967,1010 L2995,1016 L3009,1017 L3022,1016 L3042,1010 L3053,998 L3053,983 L3048,974 Z M2804,894 L2802,885 L2792,867 L2760,843 L2702,822 L2657,819 L2632,823 L2621,829 L2608,837 L2589,855 L2581,873 L2582,890 L2592,905 L2611,918 L2638,927 L2672,932 L2692,932 L2715,932 L2755,926 L2785,916 L2802,902 L2804,894 Z M2514,805 L2519,796 L2522,781 L2518,770 L2506,763 L2497,763 L2488,763 L2468,770 L2439,788 L2425,805 L2420,814 L2417,829 L2422,840 L2434,847 L2442,847 L2452,847 L2472,840 L2501,822 L2514,805 Z M2513,3726 L2505,3716 L2479,3694 L2425,3661 L2383,3644 L2360,3635 L2316,3604 L2274,3560 L2235,3504 L2199,3439 L2166,3364 L2137,3283 L2112,3195 L2091,3103 L2075,3008 L2064,2912 L2058,2815 L2057,2720 L2063,2627 L2074,2539 L2093,2456 L2105,2417 L2118,2377 L2144,2312 L2169,2264 L2193,2233 L2217,2219 L2242,2221 L2267,2239 L2293,2274 L2307,2297 L2320,2324 L2336,2384 L2339,2456 L2330,2544 L2321,2595 L2310,2657 L2300,2780 L2305,2901 L2327,3024 L2366,3151 L2422,3283 L2496,3424 L2589,3574 L2644,3654 L2671,3694 L2700,3742 L2701,3760 L2692,3767 L2664,3771 L2633,3771 L2614,3770 L2577,3763 L2544,3751 L2520,3735 L2513,3726 Z"/>
						</g>
					</g>
					<mask id="mfid3" fill="white" stroke="none"/>
				</g>
			</svg>
			<rect x="0" y="155.162" width="60.6" height="27.3383" class="st9"/>
		</g>
		<g id="group20-48" transform="translate(465.6,-36) scale(-1,1)">
			<title>Arrow, left</title>
			<desc>Knowledge &#38; Skills Exhibition Summary</desc>
			<g id="shape21-49">
				<title>Sheet.21</title>
			</g>
			<g id="shape22-52">
				<title>Sheet.22</title>
			</g>
			<g id="shape23-55">
				<title>Sheet.23</title>
			</g>
			<g id="shape24-58">
				<title>Sheet.24</title>
			</g>
			<g id="shape25-61">
				<title>Sheet.25</title>
				<path d="M81 74.5 L108 128.5 L124.28 128.25 L102.68 85.05 L81 74.5 ZM81 182.5 L108 128.5 L124.28 128.25 L102.68 171.45
							 L81 182.5 Z" class="st1"/>
			</g>
			<g id="shape26-64">
				<title>Sheet.26</title>
				<path d="M0 155.5 L81 155.5 L81 182.5 L108 128.5 L81 74.5 L81 101.5 L0 101.5 L0 155.5 Z" class="st1"/>
			</g>
			<g id="shape20-67">
				<text x="-93.2" y="113.43" transform="scale(-1,1)" class="st6"><tspan class="st7">·</tspan> <tspan class="st8">Knowledge &#38; </tspan><tspan
							x="-75.2" dy="1.207em" class="st8">Skills </tspan><tspan x="-93.2" dy="1.222em" class="st7">·</tspan> <tspan
							class="st8">Exhibition </tspan><tspan x="-75.2" dy="1.207em" class="st8">Summary</tspan></text>			</g>
		</g>
		<g id="shape27-75" transform="translate(384.6,-126)">
			<title>Sheet.27</title>
			<desc>Looking Back</desc>
			<rect x="0" y="164.5" width="108" height="18" class="st9"/>
			<text x="20.11" y="177.1" class="st3">Looking Back</text>		</g>
		<g id="shape28-78" transform="translate(471.3,-76.3308)">
			<title>Sheet.28</title>
			<rect x="0" y="155.162" width="60.6" height="27.3383" class="st9"/>
			<svg viewBox="0 0 278.5 128.47" enable-background="new" color-interpolation-filters="sRGB" height="27.3383"
					preserveAspectRatio="none" width="60.6" x="0" y="155.162">
				<defs>
					<clipPath id="mfid4">
						<rect id="mfid5" x="0" y="0" width="278.5" height="128.47"/>
					</clipPath>
				</defs>
				<g clip-path="url(#mfid4)">
					<g transform="matrix(0.02831, 0, 0, 0.028244, 0, 0)">
						<g stroke-width="121.75" stroke="none" fill="#000000">
							<path
									d="M3814,4449 L3807,4426 L3789,4401 L3773,4388 L3741,4373 L3680,4365 L3639,4364 L3607,4363 L3540,4354 L3475,4337 L3421,4314 L3402,4302 L3382,4289 L3328,4266 L3265,4249 L3198,4239 L3167,4238 L3134,4236 L3030,4217 L2820,4163 L2503,4064 L2307,3991 L2219,3950 L2196,3935 L2179,3925 L2106,3903 L1997,3880 L1864,3858 L1793,3849 L1663,3833 L1523,3807 L1456,3789 L1412,3768 L1388,3746 L1385,3721 L1400,3693 L1415,3677 L1427,3667 L1455,3650 L1492,3638 L1536,3631 L1620,3628 L1773,3645 L1980,3684 L2248,3747 L2775,3888 L3249,4025 L3472,4089 L3829,4186 L4090,4248 L4227,4271 L4297,4279 L4325,4279 L4349,4279 L4382,4274 L4397,4267 L4395,4257 L4366,4240 L4279,4218 L4218,4210 L4167,4204 L4068,4186 L3970,4162 L3876,4131 L3784,4094 L3695,4051 L3608,4001 L3525,3946 L3445,3884 L3369,3817 L3295,3744 L3225,3665 L3159,3581 L3097,3491 L3038,3395 L2983,3295 L2958,3242 L2916,3153 L2846,2978 L2793,2807 L2755,2638 L2734,2470 L2728,2301 L2737,2131 L2761,1957 L2780,1868 L2794,1804 L2815,1688 L2826,1596 L2827,1539 L2823,1530 L2820,1527 L2809,1528 L2786,1538 L2744,1569 L2694,1614 L2667,1642 L2639,1671 L2589,1718 L2545,1752 L2510,1771 L2484,1777 L2467,1769 L2460,1746 L2465,1709 L2472,1684 L2476,1670 L2477,1656 L2462,1660 L2417,1712 L2353,1800 L2240,1971 L2135,2151 L2083,2254 L2067,2293 L2052,2335 L2024,2447 L1998,2578 L1979,2713 L1973,2777 L1966,2867 L1965,2974 L1969,3037 L1978,3096 L1993,3155 L2028,3250 L2061,3327 L2083,3379 L2118,3472 L2138,3544 L2142,3578 L2139,3591 L2135,3593 L2125,3595 L2093,3589 L2027,3561 L1921,3498 L1847,3443 L1808,3407 L1793,3390 L1782,3376 L1762,3342 L1747,3305 L1738,3270 L1737,3254 L1736,3234 L1727,3201 L1712,3176 L1691,3158 L1667,3150 L1641,3151 L1614,3161 L1588,3182 L1575,3197 L1559,3220 L1542,3255 L1543,3285 L1564,3316 L1582,3334 L1606,3359 L1637,3413 L1645,3452 L1645,3478 L1638,3501 L1626,3521 L1617,3530 L1608,3538 L1586,3541 L1562,3534 L1537,3517 L1513,3493 L1493,3463 L1478,3430 L1469,3394 L1469,3376 L1468,3347 L1466,3321 L1463,3312 L1453,3313 L1427,3342 L1406,3369 L1388,3394 L1368,3430 L1368,3451 L1374,3464 L1392,3483 L1413,3498 L1433,3513 L1450,3531 L1453,3543 L1445,3562 L1408,3594 L1377,3615 L1344,3637 L1294,3660 L1262,3663 L1240,3658 L1203,3640 L1170,3621 L1139,3601 L1097,3580 L1080,3579 L1073,3584 L1068,3602 L1068,3621 L1067,3635 L1053,3658 L1028,3674 L991,3683 L944,3685 L888,3680 L824,3669 L754,3651 L716,3639 L675,3624 L631,3603 L611,3588 L597,3570 L588,3550 L584,3513 L587,3480 L590,3464 L600,3433 L617,3404 L643,3375 L700,3328 L823,3255 L910,3209 L1041,3140 L1186,3056 L1262,3005 L1326,2953 L1382,2897 L1462,2799 L1520,2714 L1572,2633 L1621,2543 L1637,2497 L1641,2463 L1630,2438 L1607,2423 L1570,2416 L1546,2415 L1533,2416 L1507,2421 L1483,2430 L1460,2445 L1427,2478 L1382,2546 L1358,2592 L1339,2628 L1295,2694 L1245,2752 L1189,2803 L1126,2847 L1056,2883 L980,2912 L896,2934 L851,2942 L803,2951 L710,2972 L623,2999 L543,3030 L472,3065 L412,3103 L363,3143 L328,3184 L317,3205 L306,3228 L290,3278 L273,3359 L269,3440 L272,3491 L280,3536 L294,3574 L303,3589 L313,3602 L351,3632 L405,3662 L470,3692 L578,3732 L685,3760 L747,3770 L774,3771 L821,3772 L919,3786 L953,3796 L968,3803 L993,3821 L1010,3843 L1020,3867 L1022,3892 L1017,3914 L1004,3931 L982,3942 L968,3944 L862,3946 L489,3933 L387,3925 L372,3922 L341,3912 L292,3887 L226,3838 L163,3774 L105,3701 L57,3622 L21,3543 L2,3467 L0,3432 L1,3406 L15,3345 L40,3278 L75,3207 L116,3137 L162,3071 L211,3014 L259,2968 L283,2952 L309,2937 L394,2902 L504,2864 L627,2828 L689,2813 L753,2797 L869,2758 L968,2710 L1056,2650 L1133,2575 L1203,2483 L1269,2372 L1332,2238 L1364,2161 L1469,1901 L1576,1653 L1644,1515 L1664,1474 L1706,1402 L1745,1347 L1776,1316 L1786,1313 L1795,1312 L1806,1299 L1811,1276 L1807,1246 L1802,1229 L1796,1207 L1793,1175 L1803,1154 L1826,1145 L1844,1144 L1858,1143 L1884,1130 L1902,1108 L1913,1077 L1913,1059 L1914,1042 L1925,1011 L1943,988 L1967,976 L1980,974 L1994,973 L2018,962 L2036,942 L2047,915 L2048,900 L2050,884 L2072,848 L2111,811 L2163,777 L2193,763 L2229,745 L2286,708 L2324,664 L2345,613 L2350,582 L2355,548 L2365,512 L2375,497 L2388,487 L2405,483 L2439,484 L2471,491 L2497,496 L2553,495 L2612,481 L2672,455 L2702,437 L2783,386 L2963,294 L3162,214 L3377,145 L3606,89 L3846,46 L4094,16 L4348,1 L4476,0 L4630,1 L4884,12 L5121,41 L5390,94 L5556,132 L5673,161 L5905,222 L6112,284 L6270,337 L6319,358 L6764,564 L7122,723 L7250,773 L7287,784 L7309,792 L7369,823 L7439,868 L7510,922 L7544,951 L7582,984 L7697,1068 L7935,1225 L8336,1464 L8652,1639 L8852,1743 L8944,1789 L9086,1858 L9340,1987 L9412,2027 L9442,2045 L9498,2089 L9547,2138 L9587,2190 L9616,2242 L9634,2291 L9639,2335 L9628,2371 L9617,2385 L9602,2400 L9581,2433 L9570,2468 L9569,2503 L9577,2537 L9594,2570 L9620,2599 L9655,2623 L9675,2633 L9699,2644 L9739,2672 L9771,2708 L9795,2751 L9812,2802 L9820,2861 L9821,2929 L9814,3006 L9808,3048 L9801,3084 L9783,3148 L9760,3202 L9728,3248 L9688,3287 L9638,3320 L9575,3348 L9500,3373 L9456,3385 L9367,3407 L9266,3425 L9215,3429 L9176,3426 L9148,3415 L9131,3397 L9123,3371 L9122,3355 L9123,3346 L9130,3327 L9152,3296 L9203,3253 L9278,3208 L9325,3186 L9366,3166 L9435,3126 L9483,3090 L9501,3068 L9504,3057 L9502,3053 L9498,3048 L9486,3042 L9460,3039 L9408,3048 L9344,3068 L9272,3097 L9196,3133 L9120,3176 L9049,3223 L9017,3248 L8981,3276 L8909,3327 L8840,3370 L8774,3405 L8712,3432 L8654,3449 L8603,3457 L8557,3456 L8538,3451 L8514,3445 L8472,3445 L8434,3460 L8399,3491 L8382,3513 L8367,3532 L8322,3577 L8229,3658 L8062,3785 L7865,3921 L7658,4055 L7460,4174 L7290,4265 L7194,4307 L7147,4320 L7131,4321 L7114,4321 L7089,4315 L7078,4304 L7078,4289 L7090,4269 L7113,4246 L7168,4206 L7220,4175 L7290,4136 L7434,4046 L7578,3946 L7722,3837 L7863,3723 L7999,3605 L8127,3486 L8246,3368 L8353,3254 L8445,3146 L8522,3047 L8580,2958 L8617,2882 L8629,2835 L8630,2809 L8625,2788 L8613,2771 L8593,2760 L8567,2754 L8551,2754 L8541,2754 L8520,2760 L8489,2779 L8447,2824 L8405,2891 L8384,2933 L8353,2996 L8274,3124 L8176,3252 L8060,3382 L7926,3511 L7774,3641 L7606,3770 L7420,3898 L7321,3962 L7217,4026 L7027,4140 L6872,4226 L6771,4275 L6751,4279 L6734,4281 L6671,4298 L6533,4346 L6425,4390 L6163,4502 L5220,4478 L5010,4472 L4651,4456 L4380,4438 L4248,4422 L4195,4411 L4181,4405 L4162,4396 L4123,4383 L4089,4378 L4064,4382 L4057,4387 L4052,4394 L4050,4408 L4057,4421 L4072,4433 L4083,4437 L4099,4443 L4119,4458 L4124,4473 L4117,4489 L4098,4504 L4069,4518 L4032,4527 L3988,4533 L3963,4533 L3931,4533 L3881,4523 L3845,4502 L3821,4470 L3814,4449 Z M6246,4241 L6337,4216 L6511,4165 L6677,4110 L6834,4051 L6982,3989 L7123,3922 L7256,3851 L7382,3775 L7500,3695 L7611,3611 L7716,3521 L7813,3427 L7905,3327 L7990,3222 L8070,3112 L8143,2996 L8178,2935 L8235,2833 L8288,2723 L8309,2670 L8316,2632 L8310,2606 L8293,2592 L8263,2586 L8244,2586 L8234,2587 L8213,2596 L8174,2625 L8114,2693 L8046,2789 L8010,2848 L7963,2925 L7848,3081 L7716,3238 L7569,3390 L7412,3534 L7250,3666 L7087,3781 L6929,3876 L6853,3913 L6783,3944 L6628,4006 L6461,4064 L6293,4116 L6133,4160 L5988,4192 L5869,4211 L5803,4215 L5771,4212 L5760,4209 L5740,4201 L5713,4183 L5703,4164 L5707,4146 L5726,4128 L5758,4112 L5803,4098 L5859,4088 L5891,4085 L5927,4081 L5996,4069 L6058,4053 L6104,4035 L6118,4026 L6133,4016 L6190,3990 L6315,3947 L6414,3921 L6479,3903 L6612,3859 L6746,3805 L6879,3741 L7010,3669 L7135,3590 L7253,3505 L7362,3416 L7412,3370 L7458,3326 L7552,3221 L7647,3104 L7738,2981 L7819,2859 L7886,2746 L7936,2647 L7958,2587 L7965,2555 L7966,2542 L7965,2514 L7957,2473 L7942,2448 L7922,2439 L7897,2446 L7869,2469 L7839,2507 L7808,2560 L7793,2592 L7764,2651 L7676,2795 L7561,2958 L7430,3127 L7296,3288 L7167,3429 L7056,3536 L6993,3584 L6961,3600 L6949,3601 L6929,3600 L6909,3591 L6901,3581 L6897,3561 L6908,3522 L6936,3471 L6982,3408 L7083,3291 L7176,3195 L7227,3143 L7325,3033 L7417,2919 L7500,2806 L7572,2697 L7630,2597 L7671,2507 L7694,2433 L7696,2404 L7696,2388 L7691,2362 L7681,2344 L7667,2334 L7651,2332 L7634,2338 L7617,2353 L7601,2376 L7595,2391 L7579,2427 L7533,2511 L7442,2652 L7338,2790 L7271,2868 L7213,2928 L7179,2955 L7162,2963 L7155,2964 L7138,2964 L7113,2957 L7102,2940 L7105,2911 L7123,2867 L7157,2807 L7237,2685 L7318,2570 L7357,2514 L7416,2421 L7442,2364 L7452,2330 L7453,2300 L7448,2272 L7434,2247 L7412,2223 L7365,2189 L7268,2144 L7134,2095 L7049,2068 L6904,2019 L6670,1933 L6619,1908 L6571,1884 L6356,1794 L6077,1686 L5823,1593 L5741,1566 L5629,1532 L5738,1500 L5773,1490 L5812,1475 L5818,1465 L5812,1459 L5788,1447 L5760,1436 L5721,1423 L5631,1404 L5595,1401 L5570,1401 L5547,1405 L5540,1412 L5539,1430 L5559,1478 L5579,1515 L5599,1554 L5636,1649 L5668,1760 L5696,1886 L5719,2025 L5736,2174 L5748,2333 L5753,2500 L5754,2586 L5753,2718 L5743,2919 L5725,3036 L5708,3108 L5673,3215 L5640,3295 L5618,3349 L5584,3443 L5564,3515 L5561,3547 L5564,3558 L5568,3559 L5579,3560 L5596,3567 L5604,3582 L5605,3604 L5593,3648 L5549,3727 L5515,3775 L5497,3800 L5472,3841 L5460,3872 L5460,3890 L5471,3897 L5493,3890 L5523,3871 L5561,3837 L5584,3814 L5601,3797 L5637,3772 L5672,3757 L5702,3755 L5713,3760 L5735,3772 L5787,3791 L5807,3795 L5864,3807 L5952,3833 L5972,3840 L6006,3860 L6030,3884 L6046,3909 L6051,3934 L6047,3955 L6031,3972 L6004,3982 L5985,3983 L5972,3982 L5948,3974 L5929,3959 L5919,3940 L5918,3930 L5917,3916 L5913,3902 L5904,3903 L5889,3920 L5879,3934 L5869,3946 L5835,3968 L5787,3985 L5733,3996 L5705,3998 L5648,4003 L5577,4018 L5544,4030 L5536,4036 L5515,4054 L5486,4066 L5469,4066 L5454,4061 L5442,4050 L5434,4033 L5429,4011 L5429,3997 L5429,3976 L5424,3957 L5418,3952 L5403,3955 L5366,3982 L5337,4006 L5310,4029 L5270,4055 L5248,4060 L5236,4057 L5218,4042 L5207,4025 L5195,4007 L5178,3992 L5166,3988 L5147,3990 L5111,4013 L5087,4033 L5068,4048 L5009,4082 L4933,4117 L4849,4150 L4808,4164 L4768,4177 L4702,4202 L4651,4227 L4616,4251 L4596,4274 L4593,4295 L4606,4314 L4637,4330 L4659,4337 L4683,4341 L4800,4347 L5082,4350 L5318,4346 L5470,4342 L5731,4326 L5953,4301 L6151,4264 L6246,4241 Z M4477,3993 L4453,3887 L4412,3674 L4383,3492 L4374,3399 L4375,3365 L4378,3359 L4389,3350 L4410,3346 L4431,3357 L4453,3385 L4475,3430 L4499,3493 L4537,3617 L4564,3727 L4583,3807 L4621,3934 L4657,4020 L4682,4055 L4698,4066 L4705,4067 L4723,4066 L4765,4057 L4840,4030 L4948,3973 L5023,3921 L5066,3886 L5083,3868 L5096,3854 L5115,3830 L5124,3806 L5122,3780 L5105,3747 L5073,3706 L4995,3622 L4914,3540 L4852,3477 L4764,3378 L4726,3323 L4711,3294 L4706,3271 L4709,3254 L4715,3247 L4722,3242 L4739,3238 L4762,3242 L4790,3255 L4843,3289 L4937,3368 L4997,3423 L5093,3511 L5207,3607 L5255,3641 L5266,3644 L5274,3641 L5298,3614 L5346,3537 L5417,3399 L5456,3303 L5471,3255 L5473,3239 L5472,3234 L5459,3221 L5421,3198 L5337,3160 L5225,3119 L5162,3099 L5091,3076 L4976,3033 L4896,2993 L4862,2966 L4851,2949 L4851,2942 L4850,2916 L4855,2893 L4868,2887 L4910,2892 L5034,2931 L5140,2966 L5246,3000 L5418,3046 L5455,3050 L5466,3049 L5489,3028 L5511,2993 L5531,2948 L5546,2899 L5556,2849 L5558,2806 L5551,2773 L5543,2763 L5532,2758 L5470,2745 L5310,2724 L5172,2714 L5095,2708 L4975,2693 L4893,2676 L4860,2662 L4849,2653 L4848,2644 L4857,2636 L4888,2624 L4965,2611 L5083,2602 L5159,2601 L5296,2598 L5440,2588 L5507,2577 L5553,2562 L5578,2542 L5585,2516 L5577,2484 L5567,2465 L5559,2452 L5544,2432 L5525,2417 L5500,2408 L5447,2402 L5329,2412 L5242,2423 L5126,2437 L4976,2446 L4906,2446 L4887,2442 L4876,2440 L4857,2440 L4841,2447 L4828,2461 L4811,2497 L4792,2581 L4783,2642 L4773,2702 L4745,2817 L4706,2926 L4659,3026 L4605,3115 L4544,3191 L4479,3252 L4411,3294 L4377,3307 L4336,3319 L4258,3333 L4184,3335 L4112,3325 L4041,3303 L3972,3268 L3902,3220 L3831,3158 L3795,3122 L3735,3058 L3662,2964 L3621,2901 L3585,2837 L3555,2769 L3517,2658 L3496,2575 L3488,2539 L3474,2504 L3463,2490 L3448,2482 L3430,2481 L3392,2488 L3356,2501 L3331,2509 L3268,2524 L3197,2535 L3126,2541 L3095,2542 L3061,2543 L3003,2552 L2958,2568 L2928,2592 L2920,2607 L2914,2624 L2914,2652 L2928,2675 L2955,2691 L2996,2702 L3051,2707 L3158,2704 L3250,2694 L3303,2688 L3385,2683 L3441,2688 L3463,2697 L3470,2706 L3471,2711 L3471,2720 L3467,2736 L3458,2749 L3439,2762 L3390,2781 L3267,2815 L3171,2838 L3128,2849 L3059,2875 L3010,2903 L2989,2925 L2982,2940 L2982,2948 L2982,2967 L2993,2997 L3015,3019 L3047,3031 L3089,3033 L3142,3027 L3205,3011 L3277,2986 L3318,2969 L3402,2933 L3505,2893 L3541,2886 L3553,2891 L3560,2911 L3559,2934 L3558,2940 L3549,2954 L3521,2979 L3461,3019 L3381,3060 L3336,3080 L3288,3101 L3207,3144 L3149,3186 L3124,3215 L3116,3232 L3115,3240 L3116,3261 L3127,3294 L3148,3316 L3178,3328 L3216,3328 L3260,3318 L3311,3297 L3366,3265 L3395,3245 L3455,3202 L3537,3151 L3574,3139 L3590,3142 L3600,3154 L3604,3174 L3605,3188 L3602,3201 L3577,3240 L3533,3290 L3474,3344 L3441,3372 L3278,3502 L3363,3614 L3399,3659 L3446,3708 L3469,3725 L3475,3727 L3483,3724 L3515,3693 L3591,3601 L3653,3517 L3685,3474 L3748,3398 L3804,3340 L3847,3308 L3860,3305 L3876,3305 L3898,3310 L3909,3323 L3910,3344 L3890,3396 L3818,3515 L3759,3603 L3602,3834 L3697,3908 L3732,3934 L3795,3968 L3852,3981 L3888,3977 L3910,3968 L3930,3955 L3948,3936 L3971,3900 L3992,3834 L4003,3749 L4004,3699 L4005,3670 L4013,3612 L4026,3556 L4044,3505 L4065,3462 L4088,3430 L4111,3413 L4133,3411 L4143,3419 L4148,3425 L4157,3443 L4164,3483 L4162,3565 L4148,3678 L4135,3748 L4125,3807 L4111,3903 L4108,3977 L4116,4030 L4132,4059 L4147,4074 L4177,4091 L4233,4103 L4309,4109 L4355,4109 L4404,4109 L4451,4105 L4472,4098 L4484,4086 L4489,4069 L4486,4031 L4477,3993 Z M9022,3066 L9099,3029 L9185,2978 L9225,2948 L9250,2923 L9260,2903 L9253,2889 L9228,2882 L9209,2881 L9187,2883 L9123,2899 L8999,2945 L8812,3033 L8696,3100 L8642,3139 L8626,3155 L8609,3176 L8585,3213 L8573,3243 L8573,3266 L8583,3279 L8604,3283 L8633,3276 L8671,3258 L8693,3243 L8744,3210 L8924,3114 L9022,3066 Z M9479,2739 L9478,2733 L9471,2720 L9451,2700 L9405,2671 L9345,2645 L9311,2635 L9247,2615 L9097,2559 L8925,2485 L8738,2395 L8541,2293 L8339,2182 L8139,2065 L7946,1944 L7854,1883 L7725,1797 L7466,1635 L7210,1488 L6958,1356 L6712,1239 L6475,1140 L6247,1058 L6031,995 L5929,971 L5760,934 L5522,873 L5417,836 L5376,813 L5357,792 L5359,772 L5369,761 L5377,756 L5407,750 L5486,754 L5669,789 L5950,857 L6137,906 L6231,933 L6455,1015 L6711,1124 L6984,1253 L7261,1395 L7530,1544 L7776,1692 L7987,1834 L8072,1899 L8112,1930 L8200,1992 L8344,2083 L8551,2196 L8762,2295 L8964,2375 L9144,2431 L9254,2453 L9315,2458 L9362,2453 L9394,2439 L9404,2428 L9411,2414 L9415,2387 L9399,2357 L9362,2323 L9299,2281 L9206,2229 L9007,2128 L8816,2037 L8695,1979 L8400,1824 L8077,1645 L7764,1462 L7627,1377 L7503,1301 L7259,1157 L7027,1029 L6812,917 L6619,826 L6454,757 L6323,715 L6253,702 L6218,702 L6206,706 L6191,710 L6158,709 L6125,697 L6095,677 L6083,664 L6068,649 L6002,613 L5903,573 L5784,534 L5721,517 L5658,500 L5544,463 L5454,426 L5411,402 L5395,388 L5392,382 L5388,368 L5392,350 L5412,342 L5449,345 L5474,351 L5512,359 L5541,357 L5542,348 L5536,342 L5525,334 L5484,317 L5393,291 L5320,277 L5266,268 L5199,261 L5178,266 L5176,274 L5186,294 L5204,314 L5221,334 L5237,361 L5231,376 L5201,381 L5175,381 L5133,380 L5088,369 L5067,358 L5055,343 L5050,325 L5055,305 L5068,281 L5079,269 L5092,253 L5100,236 L5100,227 L5090,218 L5056,212 L5029,212 L5004,212 L4970,220 L4952,235 L4950,259 L4956,275 L4961,292 L4960,311 L4954,321 L4937,331 L4896,338 L4867,339 L4837,338 L4796,331 L4779,321 L4773,311 L4772,292 L4778,275 L4782,262 L4785,240 L4782,222 L4771,213 L4764,212 L4744,210 L4681,195 L4649,184 L4627,177 L4606,174 L4597,177 L4590,189 L4596,225 L4605,252 L4614,279 L4619,315 L4611,329 L4601,334 L4578,335 L4554,331 L4537,326 L4508,309 L4488,284 L4479,254 L4479,237 L4480,224 L4478,203 L4468,188 L4446,179 L4388,172 L4239,179 L4123,189 L4027,197 L3840,223 L3663,258 L3497,302 L3344,354 L3207,413 L3086,479 L2984,551 L2941,589 L2906,623 L2847,687 L2807,739 L2792,766 L2790,777 L2792,780 L2802,788 L2834,798 L2899,806 L2995,800 L3049,785 L3069,771 L3071,763 L3071,751 L3083,733 L3106,724 L3142,723 L3219,737 L3375,787 L3479,826 L3535,847 L3637,881 L3719,903 L3759,908 L3775,907 L3779,905 L3784,899 L3786,887 L3781,876 L3769,866 L3760,862 L3723,848 L3662,814 L3620,780 L3608,758 L3609,745 L3613,740 L3617,738 L3637,737 L3688,744 L3793,768 L3925,804 L3998,827 L4074,850 L4217,887 L4337,910 L4403,916 L4435,915 L4446,912 L4465,907 L4511,904 L4559,909 L4605,921 L4624,930 L4645,939 L4710,958 L4792,973 L4882,984 L4927,987 L5016,994 L5131,1012 L5184,1026 L5198,1033 L5211,1040 L5242,1048 L5277,1050 L5311,1046 L5326,1041 L5342,1036 L5380,1038 L5421,1050 L5461,1071 L5478,1084 L5496,1098 L5536,1119 L5577,1131 L5616,1132 L5632,1128 L5648,1123 L5692,1123 L5744,1131 L5797,1148 L5822,1159 L5881,1186 L6054,1254 L6141,1283 L6416,1375 L6676,1471 L6842,1541 L6942,1585 L7060,1636 L7242,1707 L7276,1715 L7286,1717 L7315,1727 L7376,1759 L7490,1831 L7632,1932 L7713,1993 L7783,2046 L7933,2148 L8097,2249 L8270,2345 L8450,2436 L8634,2521 L8821,2598 L9008,2665 L9100,2695 L9228,2735 L9387,2781 L9445,2789 L9466,2785 L9476,2773 L9478,2752 L9479,2739 Z M1825,2500 L1825,2483 L1832,2451 L1844,2422 L1860,2400 L1869,2394 L1878,2387 L1894,2364 L1906,2333 L1913,2297 L1914,2278 L1913,2256 L1909,2225 L1902,2211 L1891,2214 L1868,2248 L1827,2354 L1801,2434 L1789,2473 L1773,2540 L1768,2586 L1772,2604 L1777,2607 L1782,2605 L1790,2598 L1806,2577 L1817,2549 L1824,2516 L1825,2500 Z M3269,2373 L3302,2373 L3346,2367 L3363,2359 L3367,2352 L3363,2338 L3352,2327 L3339,2317 L3295,2299 L3198,2276 L3046,2257 L2947,2257 L2900,2264 L2885,2271 L2873,2280 L2864,2301 L2869,2325 L2888,2349 L2915,2371 L2950,2388 L2988,2399 L3027,2401 L3045,2397 L3089,2388 L3211,2375 L3269,2373 Z M5339,2268 L5393,2254 L5471,2226 L5508,2204 L5524,2187 L5535,2169 L5540,2148 L5540,2137 L5539,2113 L5530,2088 L5518,2076 L5489,2065 L5423,2062 L5375,2064 L5339,2067 L5253,2084 L5159,2111 L5061,2146 L4968,2185 L4885,2226 L4820,2265 L4788,2292 L4775,2309 L4772,2316 L4771,2321 L4774,2330 L4788,2339 L4827,2346 L4885,2346 L5003,2335 L5214,2297 L5339,2268 Z M1669,2161 L1673,2152 L1673,2137 L1661,2125 L1641,2119 L1627,2118 L1613,2119 L1588,2125 L1569,2137 L1558,2152 L1558,2161 L1558,2169 L1564,2185 L1576,2196 L1591,2203 L1599,2203 L1608,2203 L1627,2196 L1655,2178 L1669,2161 Z M7634,2138 L7602,2116 L7545,2086 L7502,2076 L7483,2081 L7477,2091 L7476,2099 L7477,2103 L7492,2115 L7532,2138 L7605,2172 L7675,2196 L7699,2199 L7702,2198 L7697,2189 L7668,2163 L7634,2138 Z M3160,2079 L3158,2069 L3144,2050 L3120,2034 L3088,2019 L3033,2004 L2979,2001 L2948,2007 L2937,2013 L2928,2019 L2915,2034 L2910,2052 L2912,2071 L2917,2079 L2924,2088 L2951,2103 L2988,2112 L3029,2117 L3072,2117 L3110,2112 L3140,2103 L3158,2088 L3160,2079 Z M4348,1981 L4409,1916 L4547,1752 L4601,1679 L4626,1645 L4689,1575 L4759,1512 L4828,1462 L4858,1446 L4887,1431 L4938,1400 L4978,1369 L5008,1339 L5024,1314 L5026,1296 L5011,1288 L4979,1292 L4954,1300 L4906,1319 L4807,1366 L4707,1423 L4610,1488 L4518,1560 L4434,1637 L4359,1716 L4297,1795 L4273,1834 L4219,1924 L4161,2032 L4141,2077 L4139,2087 L4139,2098 L4146,2113 L4160,2118 L4180,2114 L4222,2092 L4300,2028 L4348,1981 Z M2114,1864 L2158,1779 L2198,1688 L2207,1655 L2204,1652 L2196,1655 L2170,1682 L2112,1758 L2026,1891 L1977,1979 L1960,2021 L1958,2033 L1958,2048 L1963,2068 L1972,2075 L1986,2068 L2015,2034 L2075,1937 L2114,1864 Z M5163,1961 L5240,1932 L5358,1880 L5417,1845 L5445,1823 L5464,1803 L5473,1783 L5474,1774 L5473,1753 L5464,1720 L5444,1699 L5413,1689 L5369,1692 L5311,1706 L5198,1748 L5097,1794 L4984,1847 L4832,1925 L4768,1967 L4745,1990 L4735,2010 L4737,2029 L4742,2038 L4749,2048 L4765,2063 L4787,2071 L4819,2071 L4888,2057 L5045,2004 L5163,1961 Z M7343,2013 L7340,2005 L7311,1982 L7223,1934 L7034,1851 L6795,1757 L6536,1664 L6287,1582 L6077,1521 L5966,1497 L5919,1493 L5906,1495 L5901,1497 L5899,1503 L5909,1514 L5949,1533 L6012,1554 L6052,1565 L6252,1619 L6453,1678 L6522,1700 L6644,1742 L6861,1829 L7120,1943 L7261,2005 L7333,2030 L7343,2023 L7343,2013 Z M3071,1822 L3070,1813 L3059,1798 L3041,1786 L3017,1780 L3004,1779 L2990,1780 L2966,1786 L2948,1798 L2938,1813 L2937,1822 L2938,1830 L2948,1846 L2966,1857 L2990,1864 L3004,1864 L3017,1864 L3041,1857 L3059,1846 L3070,1830 L3071,1822 Z M5035,1670 L5156,1605 L5275,1537 L5325,1504 L5354,1477 L5363,1455 L5357,1435 L5337,1414 L5323,1402 L5313,1395 L5293,1384 L5271,1379 L5247,1381 L5202,1393 L5120,1434 L5065,1467 L4981,1520 L4838,1618 L4734,1703 L4688,1752 L4674,1777 L4673,1787 L4673,1798 L4681,1813 L4698,1819 L4727,1816 L4791,1793 L4934,1724 L5035,1670 Z M1847,1737 L1851,1728 L1850,1713 L1838,1702 L1816,1695 L1802,1695 L1788,1695 L1766,1702 L1754,1713 L1753,1728 L1758,1737 L1770,1754 L1794,1777 L1802,1779 L1811,1777 L1835,1754 L1847,1737 Z M2003,1500 L2002,1496 L1991,1490 L1962,1484 L1936,1483 L1922,1483 L1898,1490 L1880,1501 L1870,1516 L1869,1524 L1870,1532 L1880,1543 L1898,1547 L1922,1545 L1936,1541 L1962,1530 L1999,1508 L2003,1500 Z M2181,1356 L2179,1347 L2166,1332 L2141,1320 L2110,1314 L2092,1313 L2073,1314 L2042,1320 L2017,1332 L2004,1347 L2003,1356 L2004,1364 L2017,1380 L2042,1391 L2073,1398 L2092,1398 L2110,1398 L2141,1391 L2166,1380 L2179,1364 L2181,1356 Z M2537,1059 L2536,1051 L2525,1035 L2506,1024 L2481,1017 L2467,1017 L2453,1017 L2433,1024 L2421,1035 L2421,1051 L2425,1059 L2439,1076 L2467,1095 L2486,1101 L2495,1102 L2503,1101 L2518,1095 L2530,1083 L2536,1068 L2537,1059 Z M3048,974 L3042,966 L3022,951 L2996,939 L2968,933 L2954,932 L2941,933 L2921,939 L2910,951 L2910,966 L2915,974 L2921,983 L2941,998 L2967,1010 L2995,1016 L3009,1017 L3022,1016 L3042,1010 L3053,998 L3053,983 L3048,974 Z M2804,894 L2802,885 L2792,867 L2760,843 L2702,822 L2657,819 L2632,823 L2621,829 L2608,837 L2589,855 L2581,873 L2582,890 L2592,905 L2611,918 L2638,927 L2672,932 L2692,932 L2715,932 L2755,926 L2785,916 L2802,902 L2804,894 Z M2514,805 L2519,796 L2522,781 L2518,770 L2506,763 L2497,763 L2488,763 L2468,770 L2439,788 L2425,805 L2420,814 L2417,829 L2422,840 L2434,847 L2442,847 L2452,847 L2472,840 L2501,822 L2514,805 Z M2513,3726 L2505,3716 L2479,3694 L2425,3661 L2383,3644 L2360,3635 L2316,3604 L2274,3560 L2235,3504 L2199,3439 L2166,3364 L2137,3283 L2112,3195 L2091,3103 L2075,3008 L2064,2912 L2058,2815 L2057,2720 L2063,2627 L2074,2539 L2093,2456 L2105,2417 L2118,2377 L2144,2312 L2169,2264 L2193,2233 L2217,2219 L2242,2221 L2267,2239 L2293,2274 L2307,2297 L2320,2324 L2336,2384 L2339,2456 L2330,2544 L2321,2595 L2310,2657 L2300,2780 L2305,2901 L2327,3024 L2366,3151 L2422,3283 L2496,3424 L2589,3574 L2644,3654 L2671,3694 L2700,3742 L2701,3760 L2692,3767 L2664,3771 L2633,3771 L2614,3770 L2577,3763 L2544,3751 L2520,3735 L2513,3726 Z"/>
						</g>
					</g>
					<mask id="mfid6" fill="white" stroke="none"/>
				</g>
			</svg>
			<rect x="0" y="155.162" width="60.6" height="27.3383" class="st9"/>
		</g>
	</g>
</svg>
