<?xml version="1.0" encoding="utf-8"?>
<!-- Generator: Adobe Illustrator 21.1.0, SVG Export Plug-In . SVG Version: 6.00 Build 0)  -->
<svg version="1.1" id="Layer_1" xmlns:ev="http://www.w3.org/2001/xml-events"
	 xmlns="http://www.w3.org/2000/svg" xmlns:xlink="http://www.w3.org/1999/xlink" x="0px" y="0px" viewBox="0 0 2304 1188"
	 enable-background="new 0 0 2304 1188" xml:space="preserve">
<line fill="none" stroke="#000000" stroke-width="6" stroke-miterlimit="10" x1="1185" y1="558" x2="1495.4" y2="556.7"/>
<line fill="none" stroke="#000000" stroke-width="6" stroke-miterlimit="10" x1="867" y1="558" x2="587.3" y2="556.7"/>
<g>
	<g id="shape29-1" transform="translate(909,-552)">
		
			<rect y="1032" fill="#FFFFFF" stroke="#000000" stroke-width="2" stroke-linecap="round" stroke-linejoin="round" stroke-miterlimit="3" width="234" height="156"/>
		<text transform="matrix(1 0 0 1 15.9299 1102.8)" font-family="'FranklinGothic-Demi'" font-size="23.9999px">Project Description </text>
		<text transform="matrix(1 0 0 1 37.3201 1131.5999)" font-family="'FranklinGothic-Demi'" font-size="23.9999px">Size and Scope</text>
	</g>
	<g id="shape30-5" transform="translate(950,-718)">
		<rect y="1168" fill="none" width="152" height="20"/>
		<text transform="matrix(1 0 0 1 28.71 1187)" font-family="'FranklinGothic-Demi'" font-size="30.0001px">Project</text>
	</g>
	<g id="shape31-8" transform="translate(633.728,-550.862) scale(-1,1)">
		<rect x="0" y="1188" fill="none" width="343" height="-158.3"/>
		<g>
			<defs>
				<rect id="SVGID_1_" x="0" y="1029.7" width="343" height="158.3"/>
			</defs>
			<clipPath id="SVGID_2_">
				<use xlink:href="#SVGID_1_"  overflow="visible"/>
			</clipPath>
			<g clip-path="url(#SVGID_2_)">
				<g transform="matrix(0.02831, 0, 0, 0.028244, 0, 0)">
					<g>
						<path d="M4696.7,41939.2l-8.6-28.3l-22.2-30.8l-19.7-16l-39.4-18.5l-75.1-9.9l-50.5-1.2l-39.4-1.2l-82.5-11.1l-80-20.9
							l-66.5-28.3l-23.4-14.8l-24.6-16l-66.5-28.3l-77.6-20.9l-82.5-12.3l-38.2-1.2l-40.6-2.5l-128.1-23.4l-258.6-66.5l-390.4-122
							l-241.4-89.9l-108.4-50.5l-28.3-18.5l-20.9-12.3l-89.9-27.1l-134.2-28.3l-163.8-27.1l-87.4-11.1l-160.1-19.7l-172.4-32
							l-82.5-22.2l-54.2-25.9l-29.6-27.1l-3.7-30.8l18.5-34.5l18.5-19.7l14.8-12.3l34.5-20.9l45.6-14.8l54.2-8.6l103.4-3.7
							l188.4,20.9l254.9,48l330,77.6l649,173.7l583.7,168.8l274.6,78.8l439.6,119.5l321.4,76.4l168.7,28.3l86.2,9.9h34.5h29.6
							l40.6-6.2l18.5-8.6l-2.5-12.3l-35.7-20.9l-107.1-27.1l-75.1-9.9l-62.8-7.4l-121.9-22.2l-120.7-29.6l-115.8-38.2l-113.3-45.6
							l-109.6-53l-107.1-61.6l-102.2-67.8l-98.5-76.4l-93.6-82.5l-91.1-89.9l-86.2-97.3l-81.3-103.5l-76.3-110.9l-72.7-118.3
							l-67.7-123.2l-30.8-65.3l-51.7-109.6l-86.2-215.6l-65.3-210.7l-46.8-208.2l-25.9-207l-7.4-208.2l11.1-209.4l29.6-214.4
							l23.4-109.6l17.2-78.8l25.9-142.9l13.5-113.3l1.2-70.2l-4.9-11.1l-3.7-3.7l-13.5,1.2l-28.3,12.3l-51.7,38.2l-61.6,55.4
							l-33.2,34.5l-34.5,35.7l-61.6,57.9l-54.2,41.9l-43.1,23.4l-32,7.4l-20.9-9.9l-8.6-28.3l6.2-45.6l8.6-30.8l4.9-17.2l1.2-17.3
							l-18.5,4.9l-55.4,64.1l-78.8,108.4l-139.2,210.7l-129.3,221.8l-64,126.9l-19.7,48l-18.5,51.7l-34.5,138l-32,161.4l-23.4,166.3
							l-7.4,78.8l-8.6,110.9l-1.2,131.8l4.9,77.6l11.1,72.7l18.5,72.7l43.1,117l40.6,94.9l27.1,64.1l43.1,114.6l24.6,88.7l4.9,41.9
							l-3.7,16l-4.9,2.5l-12.3,2.5l-39.4-7.4l-81.3-34.5l-130.5-77.6l-91.1-67.8l-48-44.4l-18.5-20.9l-13.5-17.2l-24.6-41.9
							l-18.5-45.6l-11.1-43.1l-1.2-19.7l-1.2-24.6l-11.1-40.7l-18.5-30.8l-25.9-22.2l-29.6-9.9l-32,1.2l-33.2,12.3l-32,25.9
							l-16,18.5l-19.7,28.3l-20.9,43.1l1.2,37l25.9,38.2l22.2,22.2l29.6,30.8l38.2,66.5l9.9,48.1v32l-8.6,28.3l-14.8,24.6
							l-11.1,11.1l-11.1,9.9l-27.1,3.7l-29.6-8.6l-30.8-20.9l-29.6-29.6l-24.6-37l-18.5-40.7l-11.1-44.4v-22.2l-1.2-35.7l-2.5-32
							l-3.7-11.1l-12.3,1.2l-32,35.7l-25.9,33.3l-22.2,30.8l-24.6,44.4v25.9l7.4,16l22.2,23.4l25.9,18.5l24.6,18.5l20.9,22.2
							l3.7,14.8l-9.9,23.4l-45.6,39.4l-38.2,25.9l-40.6,27.1l-61.6,28.3l-39.4,3.7l-27.1-6.2l-45.6-22.2l-40.6-23.4l-38.2-24.6
							l-51.7-25.9l-20.9-1.2l-8.6,6.2l-6.2,22.2v23.4l-1.2,17.3l-17.2,28.3l-30.8,19.7l-45.6,11.1l-57.9,2.5l-69-6.2l-78.8-13.6
							l-86.2-22.2l-46.8-14.8l-50.5-18.5l-54.2-25.9l-24.6-18.5l-17.2-22.2l-11.1-24.6l-4.9-45.6l3.7-40.7l3.7-19.7l12.3-38.2
							l20.9-35.7l32-35.7l70.2-57.9l151.5-89.9l107.1-56.7l161.3-85l178.6-103.5l93.6-62.8l78.8-64.1l69-69l98.5-120.7l71.4-104.7
							l64-99.8l60.3-110.9l19.7-56.7l4.9-41.9l-13.5-30.8l-28.3-18.5l-45.6-8.6l-29.6-1.2l-16,1.2l-32,6.2l-29.6,11.1l-28.3,18.5
							l-40.6,40.7l-55.4,83.8l-29.6,56.7l-23.4,44.4l-54.2,81.3l-61.6,71.5l-69,62.8l-77.6,54.2l-86.2,44.4l-93.6,35.7l-103.4,27.1
							l-55.4,9.9l-59.1,11.1l-114.5,25.9l-107.1,33.3l-98.5,38.2l-87.4,43.1l-73.9,46.8l-60.3,49.3l-43.1,50.5l-13.5,25.9
							l-13.5,28.3l-19.7,61.6l-20.9,99.8l-4.9,99.8l3.7,62.8l9.9,55.4l17.2,46.8l11.1,18.5l12.3,16l46.8,37l66.5,37l80,37l133,49.3
							l131.8,34.5l76.3,12.3l33.2,1.2l57.9,1.2l120.7,17.2l41.9,12.3l18.5,8.6l30.8,22.2l20.9,27.1l12.3,29.6l2.5,30.8l-6.2,27.1
							l-16,20.9l-27.1,13.6l-17.2,2.5l-130.5,2.5l-459.3-16l-125.6-9.9l-18.5-3.7l-38.2-12.3l-60.3-30.8l-81.3-60.4l-77.6-78.8
							l-71.4-89.9l-59.1-97.3l-44.3-97.3l-23.4-93.6l-2.5-43.1l1.2-32l17.2-75.2l30.8-82.5l43.1-87.5l50.5-86.2l56.6-81.3l60.3-70.2
							l59.1-56.7l29.6-19.7l32-18.5l104.7-43.1l135.5-46.8l151.5-44.4l76.3-18.5l78.8-19.7l142.8-48.1l121.9-59.1l108.4-73.9
							l94.8-92.4l86.2-113.3l81.3-136.8l77.6-165.1l39.4-94.9l129.3-320.3l131.8-305.5l83.7-170l24.6-50.5l51.7-88.7l48-67.8
							l38.2-38.2l12.3-3.7l11.1-1.2l13.5-16l6.2-28.3l-4.9-37l-6.2-20.9l-7.4-27.1l-3.7-39.4l12.3-25.9l28.3-11.1l22.2-1.2l17.2-1.2
							l32-16l22.2-27.1l13.5-38.2v-22.2l1.2-20.9l13.5-38.2l22.2-28.3l29.6-14.8l16-2.5l17.2-1.2l29.6-13.6l22.2-24.6l13.5-33.3
							l1.2-18.5l2.5-19.7l27.1-44.4l48-45.6l64-41.9l36.9-17.2l44.3-22.2l70.2-45.6l46.8-54.2l25.9-62.8l6.2-38.2l6.2-41.9
							l12.3-44.4l12.3-18.5l16-12.3l20.9-4.9l41.9,1.2l39.4,8.6l32,6.2l69-1.2l72.7-17.3l73.9-32l36.9-22.2l99.7-62.8l221.7-113.3
							l245.1-98.6l264.8-85l282-69l295.5-53l305.4-37l312.8-18.5l157.6-1.2l189.6,1.2l312.8,13.6l291.9,35.7l331.3,65.3l204.4,46.8
							l144.1,35.7l285.7,75.2l254.9,76.4l194.6,65.3l60.3,25.9l548,253.8l440.9,195.9l157.6,61.6l45.6,13.6l27.1,9.9l73.9,38.2
							l86.2,55.4l87.4,66.5l41.9,35.7l46.8,40.7l141.6,103.5l293.1,193.4l493.8,294.4l389.1,215.6l246.3,128.1l113.3,56.7l174.9,85
							l312.8,158.9l88.7,49.3l36.9,22.2l69,54.2l60.3,60.4l49.3,64.1l35.7,64.1l22.2,60.4l6.2,54.2l-13.5,44.4l-13.5,17.2
							l-18.5,18.5l-25.9,40.7l-13.5,43.1l-1.2,43.1l9.9,41.9l20.9,40.7l32,35.7l43.1,29.6l24.6,12.3l29.6,13.6l49.3,34.5l39.4,44.4
							l29.6,53l20.9,62.8l9.9,72.7l1.2,83.8l-8.6,94.9l-7.4,51.7l-8.6,44.4l-22.2,78.8l-28.3,66.5l-39.4,56.7l-49.3,48.1l-61.6,40.7
							l-77.6,34.5l-92.4,30.8l-54.2,14.8l-109.6,27.1l-124.4,22.2l-62.8,4.9l-48-3.7l-34.5-13.6l-20.9-22.2l-9.9-32l-1.2-19.7
							l1.2-11.1l8.6-23.4l27.1-38.2l62.8-53l92.4-55.4l57.9-27.1l50.5-24.6l85-49.3l59.1-44.4l22.2-27.1l3.7-13.6l-2.5-4.9l-4.9-6.2
							l-14.8-7.4l-32-3.7l-64,11.1l-78.8,24.6l-88.7,35.7l-93.6,44.4l-93.6,53l-87.4,57.9l-39.4,30.8l-44.3,34.5l-88.7,62.8l-85,53
							l-81.3,43.1l-76.3,33.3l-71.4,20.9l-62.8,9.9l-56.6-1.2l-23.4-6.2l-29.6-7.4h-51.7l-46.8,18.5l-43.1,38.2l-20.9,27.1
							l-18.5,23.4l-55.4,55.4l-114.5,99.8l-205.6,156.5l-242.6,167.6l-254.9,165.1l-243.8,146.6l-209.3,112.1l-118.2,51.7l-57.9,16
							l-19.7,1.2h-20.9l-30.8-7.4l-13.5-13.6v-18.5l14.8-24.6l28.3-28.3l67.7-49.3l64-38.2l86.2-48.1l177.3-110.9l177.3-123.2
							l177.3-134.3l173.6-140.4l167.5-145.4l157.6-146.6l146.5-145.4l131.8-140.4l113.3-133.1l94.8-122l71.4-109.6l45.6-93.6
							l14.8-57.9l1.2-32l-6.2-25.9l-14.8-20.9l-24.6-13.6l-32-7.4h-19.7h-12.3l-25.9,7.4l-38.2,23.4l-51.7,55.4l-51.7,82.5
							l-25.9,51.7l-38.2,77.6l-97.3,157.7l-120.7,157.7l-142.8,160.2l-165,158.9l-187.2,160.2l-206.9,158.9l-229,157.7l-121.9,78.9
							l-128.1,78.8l-234,140.4l-190.9,106l-124.4,60.4l-24.6,4.9l-20.9,2.5l-77.6,20.9l-169.9,59.1l-133,54.2l-322.6,138
							l-1161.2-29.6l-258.6-7.4l-442.1-19.7l-333.7-22.2l-162.5-19.7l-65.3-13.6l-17.2-7.4l-23.4-11.1l-48-16l-41.9-6.2l-30.8,4.9
							l-8.6,6.2l-6.2,8.6l-2.5,17.2l8.6,16l18.5,14.8l13.5,4.9l19.7,7.4l24.6,18.5l6.2,18.5l-8.6,19.7l-23.4,18.5l-35.7,17.3
							l-45.6,11.1l-54.2,7.4h-30.8h-39.4l-61.6-12.3l-44.3-25.9l-29.6-39.4L4696.7,41939.2z M7691.6,41683l112.1-30.8l214.3-62.8
							l204.4-67.8l193.3-72.7l182.3-76.4l173.6-82.5l163.8-87.5l155.2-93.6l145.3-98.6l136.7-103.5l129.3-110.9l119.4-115.8
							l113.3-123.2l104.7-129.4l98.5-135.5l89.9-142.9l43.1-75.2l70.2-125.7l65.3-135.5l25.9-65.3l8.6-46.8l-7.4-32l-20.9-17.3
							l-36.9-7.4h-23.4l-12.3,1.2l-25.9,11.1l-48,35.7l-73.9,83.8l-83.7,118.3l-44.3,72.7l-57.9,94.9l-141.6,192.2l-162.5,193.4
							l-181,187.3l-193.3,177.4l-199.5,162.6l-200.7,141.7l-194.6,117l-93.6,45.6l-86.2,38.2l-190.9,76.4l-205.6,71.5l-206.9,64.1
							l-197,54.2l-178.6,39.4l-146.5,23.4l-81.3,4.9l-39.4-3.7l-13.5-3.7l-24.6-9.9l-33.2-22.2l-12.3-23.4l4.9-22.2l23.4-22.2
							l39.4-19.7l55.4-17.3l69-12.3l39.4-3.7l44.3-4.9l85-14.8l76.3-19.7l56.6-22.2l17.2-11.1l18.5-12.3l70.2-32l153.9-53l121.9-32
							l80-22.2l163.8-54.2l165-66.5l163.8-78.8l161.3-88.7l153.9-97.3l145.3-104.7l134.2-109.6l61.6-56.7l56.6-54.2l115.8-129.4
							l117-144.1l112.1-151.5l99.7-150.3l82.5-139.2l61.6-122l27.1-73.9l8.6-39.4l1.2-16l-1.2-34.5l-9.9-50.5l-18.5-30.8l-24.6-11.1
							l-30.8,8.6l-34.5,28.3l-36.9,46.8l-38.2,65.3l-18.5,39.4l-35.7,72.7l-108.4,177.4l-141.6,200.8l-161.3,208.2l-165,198.4
							l-158.9,173.7l-136.7,131.8l-77.6,59.1l-39.4,19.7l-14.8,1.2l-24.6-1.2l-24.6-11.1l-9.9-12.3l-4.9-24.6l13.5-48.1l34.5-62.8
							l56.6-77.6l124.4-144.1l114.5-118.3l62.8-64.1l120.7-135.5l113.3-140.4l102.2-139.2l88.7-134.3l71.4-123.2l50.5-110.9
							l28.3-91.2l2.5-35.7v-19.7l-6.2-32l-12.3-22.2l-17.2-12.3l-19.7-2.5l-20.9,7.4l-20.9,18.5l-19.7,28.3l-7.4,18.5l-19.7,44.4
							l-56.6,103.5l-112.1,173.7l-128.1,170l-82.5,96.1l-71.4,73.9l-41.9,33.3l-20.9,9.9l-8.6,1.2H8790l-30.8-8.6l-13.5-20.9
							l3.7-35.7l22.2-54.2l41.9-73.9l98.5-150.3l99.7-141.7l48-69l72.7-114.6l32-70.2l12.3-41.9l1.2-37l-6.2-34.5l-17.2-30.8
							l-27.1-29.6l-57.9-41.9l-119.4-55.4l-165-60.4l-104.7-33.3l-178.6-60.4l-288.2-106l-62.8-30.8l-59.1-29.6l-264.8-110.9
							l-343.6-133.1l-312.8-114.6l-101-33.3l-137.9-41.9l134.2-39.4l43.1-12.3l48-18.5l7.4-12.3l-7.4-7.4l-29.6-14.8l-34.5-13.6
							l-48-16l-110.8-23.4l-44.3-3.7h-30.8l-28.3,4.9l-8.6,8.6l-1.2,22.2l24.6,59.1l24.6,45.6l24.6,48l45.6,117l39.4,136.8
							l34.5,155.2l28.3,171.3l20.9,183.6l14.8,195.9l6.2,205.7l1.2,106l-1.2,162.6l-12.3,247.6l-22.2,144.1l-20.9,88.7l-43.1,131.8
							l-40.6,98.6l-27.1,66.5l-41.9,115.8l-24.6,88.7l-3.7,39.4l3.7,13.6l4.9,1.2l13.5,1.2l20.9,8.6l9.9,18.5l1.2,27.1l-14.8,54.2
							l-54.2,97.3l-41.9,59.1l-22.2,30.8l-30.8,50.5l-14.8,38.2v22.2l13.5,8.6l27.1-8.6l36.9-23.4l46.8-41.9l28.3-28.3l20.9-20.9
							l44.3-30.8l43.1-18.5l36.9-2.5l13.5,6.2l27.1,14.8l64,23.4l24.6,4.9l70.2,14.8l108.4,32l24.6,8.6l41.9,24.6l29.6,29.6
							l19.7,30.8l6.2,30.8l-4.9,25.9l-19.7,20.9l-33.2,12.3l-23.4,1.2l-16-1.2l-29.6-9.9l-23.4-18.5l-12.3-23.4l-1.2-12.3l-1.2-17.2
							l-4.9-17.3l-11.1,1.2l-18.5,20.9l-12.3,17.3l-12.3,14.8l-41.9,27.1l-59.1,20.9l-66.5,13.6l-34.5,2.5l-70.2,6.2l-87.4,18.5
							l-40.6,14.8l-9.9,7.4l-25.9,22.2l-35.7,14.8h-20.9l-18.5-6.2l-14.8-13.6l-9.9-20.9l-6.2-27.1v-17.3v-25.9l-6.2-23.4l-7.4-6.2
							l-18.5,3.7l-45.6,33.3l-35.7,29.6l-33.2,28.3l-49.3,32l-27.1,6.2l-14.8-3.7l-22.2-18.5l-13.5-20.9l-14.8-22.2l-20.9-18.5
							l-14.8-4.9l-23.4,2.5l-44.3,28.3l-29.6,24.6l-23.4,18.5l-72.7,41.9l-93.6,43.1l-103.4,40.7l-50.5,17.2l-49.3,16l-81.3,30.8
							l-62.8,30.8l-43.1,29.6l-24.6,28.3l-3.7,25.9l16,23.4l38.2,19.7l27.1,8.6l29.6,4.9l144.1,7.4l347.3,3.7l290.6-4.9l187.2-4.9
							l321.4-19.7l273.4-30.8l243.8-45.6L7691.6,41683z M5513.1,41377.4l-29.6-130.6l-50.5-262.4l-35.7-224.2l-11.1-114.6l1.2-41.9
							l3.7-7.4l13.5-11.1l25.9-4.9l25.9,13.6l27.1,34.5l27.1,55.4l29.6,77.6l46.8,152.8l33.2,135.5l23.4,98.6l46.8,156.5l44.3,106
							l30.8,43.1l19.7,13.6l8.6,1.2l22.2-1.2l51.7-11.1l92.4-33.3l133-70.2l92.4-64.1l53-43.1l20.9-22.2l16-17.3l23.4-29.6
							l11.1-29.6l-2.5-32l-20.9-40.7l-39.4-50.5l-96.1-103.5l-99.7-101l-76.3-77.6l-108.4-122l-46.8-67.8l-18.5-35.7l-6.2-28.3
							l3.7-20.9l7.4-8.6l8.6-6.2l20.9-4.9l28.3,4.9l34.5,16l65.3,41.9l115.8,97.3l73.9,67.8l118.2,108.4l140.4,118.3l59.1,41.9
							l13.5,3.7l9.9-3.7l29.6-33.3l59.1-94.9l87.4-170l48-118.3l18.5-59.1l2.5-19.7l-1.2-6.2l-16-16l-46.8-28.3l-103.4-46.8
							l-137.9-50.5l-77.6-24.6l-87.4-28.3l-141.6-53l-98.5-49.3l-41.9-33.3l-13.5-20.9v-8.6l-1.2-32l6.2-28.3l16-7.4l51.7,6.2
							l152.7,48.1l130.5,43.1l130.5,41.9l211.8,56.7l45.6,4.9l13.5-1.2l28.3-25.9l27.1-43.1l24.6-55.4l18.5-60.4l12.3-61.6l2.5-53
							l-8.6-40.7l-9.9-12.3l-13.5-6.2l-76.3-16l-197-25.9l-169.9-12.3l-94.8-7.4l-147.8-18.5l-101-20.9l-40.6-17.2l-13.5-11.1
							l-1.2-11.1l11.1-9.9l38.2-14.8l94.8-16l145.3-11.1l93.6-1.2l168.7-3.7l177.3-12.3l82.5-13.6l56.6-18.5l30.8-24.6l8.6-32
							l-9.9-39.4l-12.3-23.4l-9.9-16l-18.5-24.6l-23.4-18.5l-30.8-11.1l-65.3-7.4l-145.3,12.3l-107.1,13.6l-142.8,17.3l-184.7,11.1
							h-86.2l-23.4-4.9l-13.5-2.5h-23.4l-19.7,8.6l-16,17.2l-20.9,44.4l-23.4,103.5l-11.1,75.2l-12.3,73.9l-34.5,141.7l-48,134.3
							l-57.9,123.2l-66.5,109.6l-75.1,93.6l-80,75.2l-83.7,51.7l-41.9,16l-50.5,14.8l-96.1,17.3l-91.1,2.5l-88.7-12.3l-87.4-27.1
							l-85-43.1l-86.2-59.1l-87.4-76.4l-44.3-44.4l-73.9-78.8l-89.9-115.8l-50.5-77.6l-44.3-78.8l-36.9-83.8l-46.8-136.8
							l-25.9-102.3l-9.9-44.4l-17.2-43.1l-13.5-17.2l-18.5-9.9l-22.2-1.2l-46.8,8.6l-44.3,16l-30.8,9.9l-77.6,18.5l-87.4,13.6
							l-87.4,7.4l-38.2,1.2l-41.9,1.2l-71.4,11.1l-55.4,19.7l-36.9,29.6l-9.9,18.5l-7.4,20.9v34.5l17.2,28.3l33.2,19.7l50.5,13.6
							l67.7,6.2l131.8-3.7l113.3-12.3l65.3-7.4l101-6.2l69,6.2l27.1,11.1l8.6,11.1l1.2,6.2v11.1l-4.9,19.7l-11.1,16l-23.4,16
							l-60.3,23.4l-151.5,41.9l-118.2,28.3l-53,13.6l-85,32l-60.3,34.5l-25.9,27.1l-8.6,18.5v9.9v23.4l13.5,37l27.1,27.1l39.4,14.8
							l51.7,2.5l65.3-7.4l77.6-19.7l88.7-30.8l50.5-20.9l103.4-44.4l126.8-49.3l44.3-8.6l14.8,6.2l8.6,24.6l-1.2,28.3l-1.2,7.4
							l-11.1,17.3l-34.5,30.8l-73.9,49.3l-98.5,50.5l-55.4,24.6l-59.1,25.9l-99.7,53l-71.4,51.7l-30.8,35.7l-9.9,20.9l-1.2,9.9
							l1.2,25.9l13.5,40.7l25.9,27.1l36.9,14.8h46.8l54.2-12.3l62.8-25.9l67.7-39.4l35.7-24.6l73.9-53l101-62.8l45.6-14.8l19.7,3.7
							l12.3,14.8l4.9,24.6l1.2,17.3l-3.7,16l-30.8,48l-54.2,61.6l-72.7,66.5l-40.6,34.5l-200.7,160.2l104.7,138l44.3,55.4l57.9,60.4
							l28.3,20.9l7.4,2.5l9.9-3.7l39.4-38.2l93.6-113.3l76.3-103.5l39.4-53l77.6-93.6l69-71.5l53-39.4l16-3.7h19.7l27.1,6.2l13.5,16
							l1.2,25.9l-24.6,64.1l-88.7,146.6l-72.7,108.4l-193.3,284.6l117,91.2l43.1,32l77.6,41.9l70.2,16l44.3-4.9l27.1-11.1l24.6-16
							l22.2-23.4l28.3-44.4l25.9-81.3l13.5-104.7l1.2-61.6l1.2-35.7l9.9-71.5l16-69l22.2-62.8l25.9-53l28.3-39.4l28.3-20.9l27.1-2.5
							l12.3,9.9l6.2,7.4l11.1,22.2l8.6,49.3l-2.5,101l-17.2,139.2l-16,86.2l-12.3,72.7l-17.2,118.3l-3.7,91.2l9.9,65.3l19.7,35.7
							l18.5,18.5l36.9,20.9l69,14.8l93.6,7.4h56.6h60.3l57.9-4.9l25.9-8.6l14.8-14.8l6.2-20.9l-3.7-46.8L5513.1,41377.4z
							 M11110,40235.3l94.8-45.6l105.9-62.8l49.3-37l30.8-30.8l12.3-24.6l-8.6-17.3l-30.8-8.6l-23.4-1.2l-27.1,2.5l-78.8,19.7
							l-152.7,56.7l-230.3,108.4l-142.8,82.5l-66.5,48.1l-19.7,19.7l-20.9,25.9l-29.6,45.6l-14.8,37v28.3l12.3,16l25.9,4.9l35.7-8.6
							l46.8-22.2l27.1-18.5l62.8-40.7l221.7-118.3L11110,40235.3z M11672.8,39832.5l-1.2-7.4l-8.6-16l-24.6-24.6l-56.6-35.7
							l-73.9-32l-41.9-12.3l-78.8-24.6l-184.7-69l-211.8-91.2l-230.3-110.9l-242.6-125.7l-248.8-136.8l-246.3-144.1L9785,38853
							l-113.3-75.2l-158.9-106l-318.9-199.6l-315.2-181.1l-310.3-162.6l-302.9-144.1l-291.9-122l-280.8-101l-266-77.6l-125.6-29.6
							l-208.1-45.6l-293.1-75.2l-129.3-45.6l-50.5-28.3l-23.4-25.9l2.5-24.6l12.3-13.6l9.9-6.2l36.9-7.4l97.3,4.9l225.4,43.1
							l346,83.8l230.3,60.4l115.8,33.3l275.8,101l315.2,134.3l336.2,158.9l341.1,174.9l331.3,183.6l302.9,182.3l259.8,174.9
							l104.7,80.1l49.3,38.2l108.4,76.4l177.3,112.1l254.9,139.2l259.8,122l248.8,98.6l221.7,69l135.5,27.1l75.1,6.2l57.9-6.2
							l39.4-17.2l12.3-13.6l8.6-17.2l4.9-33.3l-19.7-37l-45.6-41.9l-77.6-51.7l-114.5-64.1l-245.1-124.4l-235.2-112.1l-149-71.5
							l-363.3-191l-397.8-220.5l-385.4-225.5l-168.7-104.7l-152.7-93.6l-300.5-177.4l-285.7-157.7l-264.8-138l-237.7-112.1
							l-203.2-85l-161.3-51.7l-86.2-16h-43.1l-14.8,4.9l-18.5,4.9l-40.6-1.2l-40.6-14.8l-36.9-24.6l-14.8-16l-18.5-18.5l-81.3-44.4
							l-121.9-49.3l-146.5-48.1l-77.6-20.9l-77.6-20.9l-140.4-45.6l-110.8-45.6l-53-29.6l-19.7-17.2l-3.7-7.4l-4.9-17.2l4.9-22.2
							l24.6-9.9l45.6,3.7l30.8,7.4l46.8,9.9l35.7-2.5l1.2-11.1l-7.4-7.4l-13.5-9.9l-50.5-20.9l-112.1-32l-89.9-17.3l-66.5-11.1
							l-82.5-8.6l-25.9,6.2l-2.5,9.9l12.3,24.6l22.2,24.6l20.9,24.6l19.7,33.3l-7.4,18.5l-36.9,6.2h-32l-51.7-1.2l-55.4-13.6
							l-25.9-13.6l-14.8-18.5l-6.2-22.2l6.2-24.6l16-29.6l13.5-14.8l16-19.7l9.9-20.9v-11.1l-12.3-11.1l-41.9-7.4h-33.2h-30.8
							l-41.9,9.9l-22.2,18.5l-2.5,29.6l7.4,19.7l6.2,20.9l-1.2,23.4l-7.4,12.3l-20.9,12.3l-50.5,8.6l-35.7,1.2l-36.9-1.2l-50.5-8.6
							l-20.9-12.3l-7.4-12.3l-1.2-23.4l7.4-20.9l4.9-16l3.7-27.1l-3.7-22.2l-13.5-11.1l-8.6-1.2l-24.6-2.5l-77.6-18.5l-39.4-13.6
							l-27.1-8.6l-25.9-3.7l-11.1,3.7l-8.6,14.8l7.4,44.4l11.1,33.3l11.1,33.3l6.2,44.4l-9.9,17.3l-12.3,6.2l-28.3,1.2l-29.6-4.9
							l-20.9-6.2l-35.7-20.9l-24.6-30.8l-11.1-37v-20.9l1.2-16l-2.5-25.9l-12.3-18.5l-27.1-11.1l-71.4-8.6l-183.5,8.6l-142.8,12.3
							l-118.2,9.9l-230.3,32l-218,43.1l-204.4,54.2l-188.4,64.1l-168.7,72.7l-149,81.3l-125.6,88.7l-53,46.8l-43.1,41.9l-72.7,78.9
							l-49.3,64.1l-18.5,33.3l-2.5,13.6l2.5,3.7l12.3,9.9l39.4,12.3l80,9.9l118.2-7.4l66.5-18.5l24.6-17.2l2.5-9.9v-14.8l14.8-22.2
							l28.3-11.1l44.3-1.2l94.8,17.2l192.1,61.6l128.1,48l69,25.9l125.6,41.9l101,27.1l49.3,6.2l19.7-1.2l4.9-2.5l6.2-7.4l2.5-14.8
							l-6.2-13.6l-14.8-12.3l-11.1-4.9l-45.6-17.3l-75.1-41.9l-51.7-41.9l-14.8-27.1l1.2-16l4.9-6.2l4.9-2.5l24.6-1.2l62.8,8.6
							l129.3,29.6l162.5,44.4l89.9,28.3l93.6,28.3l176.1,45.6l147.8,28.3l81.3,7.4l39.4-1.2l13.5-3.7l23.4-6.2l56.6-3.7l59.1,6.2
							l56.6,14.8l23.4,11.1l25.9,11.1l80,23.4l101,18.5l110.8,13.6l55.4,3.7l109.6,8.6l141.6,22.2l65.3,17.2l17.2,8.6l16,8.6
							l38.2,9.9l43.1,2.5l41.9-4.9l18.5-6.2l19.7-6.2l46.8,2.5l50.5,14.8l49.3,25.9l20.9,16l22.2,17.3l49.3,25.9l50.5,14.8l48,1.2
							l19.7-4.9l19.7-6.2h54.2l64,9.9l65.3,20.9l30.8,13.6l72.7,33.3l213,83.8l107.1,35.7l338.6,113.3l320.2,118.3l204.4,86.2
							l123.1,54.2l145.3,62.8l224.1,87.5l41.9,9.9l12.3,2.5l35.7,12.3l75.1,39.4l140.4,88.7l174.9,124.4l99.7,75.2l86.2,65.3
							l184.7,125.7l202,124.4l213,118.3l221.7,112.1l226.6,104.7l230.3,94.9l230.3,82.5l113.3,37l157.6,49.3l195.8,56.7l71.4,9.9
							l25.9-4.9l12.3-14.8l2.5-25.9L11672.8,39832.5z M2247.4,39538v-20.9l8.6-39.4l14.8-35.7l19.7-27.1l11.1-7.4l11.1-8.6
							l19.7-28.3l14.8-38.2l8.6-44.4l1.2-23.4l-1.2-27.1l-4.9-38.2l-8.6-17.2l-13.5,3.7l-28.3,41.9l-50.5,130.6l-32,98.6l-14.8,48
							l-19.7,82.5l-6.2,56.7l4.9,22.2l6.2,3.7l6.2-2.5l9.9-8.6l19.7-25.9l13.5-34.5l8.6-40.7L2247.4,39538z M4025.6,39381.6h40.6
							l54.2-7.4l20.9-9.9l4.9-8.6l-4.9-17.2l-13.5-13.6l-16-12.3l-54.2-22.2l-119.4-28.3l-187.2-23.4H3629l-57.9,8.6l-18.5,8.6
							l-14.8,11.1l-11.1,25.9l6.2,29.6l23.4,29.6l33.2,27.1l43.1,20.9l46.8,13.6l48,2.5l22.2-4.9l54.2-11.1l150.2-16L4025.6,39381.6
							z M6574.6,39252.2l66.5-17.2l96.1-34.5l45.6-27.1l19.7-20.9l13.5-22.2l6.2-25.9v-13.6l-1.2-29.6l-11.1-30.8l-14.8-14.8
							l-35.7-13.6l-81.3-3.7l-59.1,2.5l-44.3,3.7l-105.9,20.9l-115.8,33.3l-120.7,43.1l-114.5,48.1l-102.2,50.5l-80,48l-39.4,33.3
							l-16,20.9l-3.7,8.6l-1.2,6.2l3.7,11.1l17.2,11.1l48,8.6h71.4l145.3-13.6l259.8-46.8L6574.6,39252.2z M2055.3,39120.4l4.9-11.1
							v-18.5l-14.8-14.8l-24.6-7.4l-17.2-1.2l-17.2,1.2l-30.8,7.4l-23.4,14.8l-13.5,18.5v11.1v9.9l7.4,19.7l14.8,13.6l18.5,8.6h9.9
							h11.1l23.4-8.6l34.5-22.2L2055.3,39120.4z M9400.8,39092l-39.4-27.1l-70.2-37l-53-12.3l-23.4,6.2l-7.4,12.3l-1.2,9.9l1.2,4.9
							l18.5,14.8l49.3,28.3l89.9,41.9l86.2,29.6l29.6,3.7l3.7-1.2l-6.2-11.1l-35.7-32L9400.8,39092z M3891.3,39019.4l-2.5-12.3
							l-17.2-23.4l-29.6-19.7l-39.4-18.5l-67.7-18.5l-66.5-3.7l-38.2,7.4l-13.5,7.4l-11.1,7.4l-16,18.5l-6.2,22.2l2.5,23.4l6.2,9.9
							l8.6,11.1l33.2,18.5l45.6,11.1l50.5,6.2h53l46.8-6.2l36.9-11.1l22.2-18.5L3891.3,39019.4z M5354.3,38898.6l75.1-80.1
							l169.9-202.1l66.5-89.9l30.8-41.9l77.6-86.2l86.2-77.6l85-61.6l36.9-19.7l35.7-18.5l62.8-38.2l49.3-38.2l36.9-37l19.7-30.8
							l2.5-22.2l-18.5-9.9l-39.4,4.9l-30.8,9.9l-59.1,23.4l-121.9,57.9l-123.1,70.2l-119.4,80.1l-113.3,88.7l-103.4,94.9l-92.4,97.3
							l-76.3,97.3l-29.6,48l-66.5,110.9l-71.4,133.1l-24.6,55.4l-2.5,12.3v13.6l8.6,18.5l17.2,6.2l24.6-4.9l51.7-27.1l96.1-78.8
							L5354.3,38898.6z M2603.3,38754.5l54.2-104.7l49.3-112.1l11.1-40.7l-3.7-3.7l-9.9,3.7l-32,33.3l-71.4,93.6l-105.9,163.9
							l-60.3,108.4l-20.9,51.7l-2.5,14.8v18.5l6.2,24.6l11.1,8.6l17.2-8.6l35.7-41.9l73.9-119.5L2603.3,38754.5z M6357.9,38874
							l94.8-35.7l145.3-64.1l72.7-43.1l34.5-27.1l23.4-24.6l11.1-24.6l1.2-11.1l-1.2-25.9l-11.1-40.7l-24.6-25.9l-38.2-12.3
							l-54.2,3.7l-71.4,17.3l-139.2,51.7l-124.4,56.7l-139.2,65.3l-187.2,96.1l-78.8,51.7l-28.3,28.3l-12.3,24.6l2.5,23.4l6.2,11.1
							l8.6,12.3l19.7,18.5l27.1,9.9h39.4l85-17.3l193.3-65.3L6357.9,38874z M9042.4,38938l-3.7-9.9l-35.7-28.3l-108.4-59.1
							l-232.7-102.3l-294.3-115.8l-318.9-114.6l-306.6-101l-258.6-75.2l-136.7-29.6l-57.9-4.9l-16,2.5l-6.2,2.5l-2.5,7.4l12.3,13.6
							l49.3,23.4l77.6,25.9l49.3,13.6l246.3,66.5l247.5,72.7l85,27.1l150.2,51.7l267.2,107.2l318.9,140.4l173.6,76.4l88.7,30.8
							l12.3-8.6V38938z M3781.7,38702.7l-1.2-11.1l-13.5-18.5l-22.2-14.8l-29.6-7.4l-16-1.2l-17.2,1.2l-29.6,7.4l-22.2,14.8
							l-12.3,18.5l-1.2,11.1l1.2,9.9l12.3,19.7l22.2,13.6l29.6,8.6h17.2h16l29.6-8.6l22.2-13.6l13.5-19.7L3781.7,38702.7z
							 M6200.3,38515.5l149-80.1l146.5-83.8l61.6-40.7l35.7-33.3l11.1-27.1l-7.4-24.6l-24.6-25.9l-17.2-14.8l-12.3-8.6l-24.6-13.6
							l-27.1-6.2l-29.6,2.5l-55.4,14.8l-101,50.5l-67.7,40.7l-103.4,65.3l-176.1,120.7l-128.1,104.7l-56.6,60.4l-17.2,30.8
							l-1.2,12.3v13.6l9.9,18.5l20.9,7.4l35.7-3.7l78.8-28.3l176.1-85L6200.3,38515.5z M2274.5,38598l4.9-11.1l-1.2-18.5l-14.8-13.6
							l-27.1-8.6H2219h-17.2l-27.1,8.6l-14.8,13.6l-1.2,18.5l6.2,11.1l14.8,20.9l29.6,28.3l9.9,2.5l11.1-2.5l29.6-28.3L2274.5,38598
							z M2466.6,38306l-1.2-4.9l-13.5-7.4l-35.7-7.4l-32-1.2h-17.2l-29.6,8.6l-22.2,13.6l-12.3,18.5l-1.2,9.9l1.2,9.9l12.3,13.6
							l22.2,4.9l29.6-2.5l17.2-4.9l32-13.6l45.6-27.1L2466.6,38306z M2685.8,38128.6l-2.5-11.1l-16-18.5l-30.8-14.8l-38.2-7.4
							l-22.2-1.2l-23.4,1.2l-38.2,7.4l-30.8,14.8l-16,18.5l-1.2,11.1l1.2,9.9l16,19.7l30.8,13.6l38.2,8.6h23.4h22.2l38.2-8.6
							l30.8-13.6l16-19.7L2685.8,38128.6z M3124.2,37762.7l-1.2-9.9l-13.5-19.7l-23.4-13.6l-30.8-8.6H3038h-17.2l-24.6,8.6
							l-14.8,13.6v19.7l4.9,9.9l17.2,20.9l34.5,23.4l23.4,7.4l11.1,1.2l9.9-1.2l18.5-7.4l14.8-14.8l7.4-18.5L3124.2,37762.7z
							 M3753.4,37658l-7.4-9.9l-24.6-18.5l-32-14.8l-34.5-7.4l-17.2-1.2l-16,1.2l-24.6,7.4l-13.5,14.8v18.5l6.2,9.9l7.4,11.1
							l24.6,18.5l32,14.8l34.5,7.4l17.2,1.2l16-1.2l24.6-7.4l13.5-14.8v-18.5L3753.4,37658z M3452.9,37559.4l-2.5-11.1l-12.3-22.2
							l-39.4-29.6l-71.4-25.9l-55.4-3.7l-30.8,4.9l-13.5,7.4l-16,9.9l-23.4,22.2l-9.9,22.2l1.2,20.9l12.3,18.5l23.4,16l33.2,11.1
							l41.9,6.2h24.6h28.3l49.3-7.4l36.9-12.3l20.9-17.3L3452.9,37559.4z M3095.8,37449.8l6.2-11.1l3.7-18.5l-4.9-13.6l-14.8-8.6
							h-11.1h-11.1l-24.6,8.6l-35.7,22.2l-17.2,20.9l-6.2,11.1l-3.7,18.5l6.2,13.6l14.8,8.6h9.9h12.3l24.6-8.6l35.7-22.2
							L3095.8,37449.8z M3094.6,41048.5l-9.9-12.3l-32-27.1l-66.5-40.7l-51.7-20.9l-28.3-11.1l-54.2-38.2l-51.7-54.2l-48-69
							l-44.3-80.1l-40.6-92.4l-35.7-99.8l-30.8-108.4l-25.9-113.3l-19.7-117l-13.5-118.3l-7.4-119.5l-1.2-117l7.4-114.6l13.5-108.4
							l23.4-102.3l14.8-48l16-49.3l32-80.1l30.8-59.1l29.6-38.2l29.6-17.3l30.8,2.5l30.8,22.2l32,43.1l17.2,28.3l16,33.3l19.7,73.9
							l3.7,88.7l-11.1,108.4l-11.1,62.8l-13.5,76.4l-12.3,151.5l6.2,149.1l27.1,151.5l48,156.5l69,162.6l91.1,173.7l114.5,184.8
							l67.7,98.6l33.2,49.3l35.7,59.1l1.2,22.2l-11.1,8.6l-34.5,4.9h-38.2l-23.4-1.2l-45.6-8.6l-40.6-14.8l-29.6-19.7
							L3094.6,41048.5z"/>
					</g>
				</g>
			</g>
		</g>
		<rect x="0" y="1188" fill="none" width="343" height="-158.3"/>
	</g>
	<g id="shape32-11" transform="translate(587.886,-621)">
		<g transform="scale(-4,-4) ">
			<g id="lend5">
				<path d="M273.1,1155l48,24l-47.5,23.8c7.4-15.1,7.4-32.8-0.1-47.9"/>
			</g>
		</g>
		<rect x="131.1" y="1164.6" fill="#FFFFFF" width="59" height="28.8"/>
		<text transform="matrix(1 0 0 1 131.0701 1186.2)" font-family="'FranklinGothic-Demi'" font-size="23.9999px">Goals</text>
	</g>
	<g id="shape33-20" transform="translate(1449,-550.862)">
		<rect y="1029.7" fill="none" width="343" height="158.3"/>
		<g>
			<defs>
				<rect id="SVGID_3_" y="1029.7" width="343" height="158.3"/>
			</defs>
			<clipPath id="SVGID_4_">
				<use xlink:href="#SVGID_3_"  overflow="visible"/>
			</clipPath>
			<g clip-path="url(#SVGID_4_)">
				<g transform="matrix(0.02831, 0, 0, 0.028244, 0, 0)">
					<g>
						<path d="M4696.7,41939.2l-8.6-28.3l-22.2-30.8l-19.7-16l-39.4-18.5l-75.1-9.9l-50.5-1.2l-39.4-1.2l-82.5-11.1l-80-20.9
							l-66.5-28.3l-23.4-14.8l-24.6-16l-66.5-28.3l-77.6-20.9l-82.5-12.3l-38.2-1.2l-40.6-2.5l-128.1-23.4l-258.6-66.5l-390.4-122
							l-241.4-89.9l-108.4-50.5l-28.3-18.5l-20.9-12.3l-89.9-27.1l-134.2-28.3l-163.8-27.1l-87.4-11.1l-160.1-19.7l-172.4-32
							l-82.5-22.2l-54.2-25.9l-29.6-27.1l-3.7-30.8l18.5-34.5l18.5-19.7l14.8-12.3l34.5-20.9l45.6-14.8l54.2-8.6l103.4-3.7
							l188.4,20.9l254.9,48l330,77.6l649,173.7l583.7,168.8l274.6,78.8l439.6,119.5l321.4,76.4l168.7,28.3l86.2,9.9h34.5h29.6
							l40.6-6.2l18.5-8.6l-2.5-12.3l-35.7-20.9l-107.1-27.1l-75.1-9.9l-62.8-7.4l-121.9-22.2l-120.7-29.6l-115.8-38.2l-113.3-45.6
							l-109.6-53l-107.1-61.6l-102.2-67.8l-98.5-76.4l-93.6-82.5l-91.1-89.9l-86.2-97.3l-81.3-103.5l-76.3-110.9l-72.7-118.3
							l-67.7-123.2l-30.8-65.3l-51.7-109.6l-86.2-215.6l-65.3-210.7l-46.8-208.2l-25.9-207l-7.4-208.2l11.1-209.4l29.6-214.4
							l23.4-109.6l17.2-78.8l25.9-142.9l13.5-113.3l1.2-70.2l-4.9-11.1l-3.7-3.7l-13.5,1.2l-28.3,12.3l-51.7,38.2l-61.6,55.4
							l-33.2,34.5l-34.5,35.7l-61.6,57.9l-54.2,41.9l-43.1,23.4l-32,7.4l-20.9-9.9l-8.6-28.3l6.2-45.6l8.6-30.8l4.9-17.2l1.2-17.3
							l-18.5,4.9l-55.4,64.1l-78.8,108.4l-139.2,210.7l-129.3,221.8l-64,126.9l-19.7,48l-18.5,51.7l-34.5,138l-32,161.4l-23.4,166.3
							l-7.4,78.8l-8.6,110.9l-1.2,131.8l4.9,77.6l11.1,72.7l18.5,72.7l43.1,117l40.6,94.9l27.1,64.1l43.1,114.6l24.6,88.7l4.9,41.9
							l-3.7,16l-4.9,2.5l-12.3,2.5l-39.4-7.4l-81.3-34.5l-130.5-77.6l-91.1-67.8l-48-44.4l-18.5-20.9l-13.5-17.2l-24.6-41.9
							l-18.5-45.6l-11.1-43.1l-1.2-19.7l-1.2-24.6l-11.1-40.7l-18.5-30.8l-25.9-22.2l-29.6-9.9l-32,1.2l-33.2,12.3l-32,25.9
							l-16,18.5l-19.7,28.3l-20.9,43.1l1.2,37l25.9,38.2l22.2,22.2l29.6,30.8l38.2,66.5l9.9,48.1v32l-8.6,28.3l-14.8,24.6
							l-11.1,11.1l-11.1,9.9l-27.1,3.7l-29.6-8.6l-30.8-20.9l-29.6-29.6l-24.6-37l-18.5-40.7l-11.1-44.4v-22.2l-1.2-35.7l-2.5-32
							l-3.7-11.1l-12.3,1.2l-32,35.7l-25.9,33.3l-22.2,30.8l-24.6,44.4v25.9l7.4,16l22.2,23.4l25.9,18.5l24.6,18.5l20.9,22.2
							l3.7,14.8l-9.9,23.4l-45.6,39.4l-38.2,25.9l-40.6,27.1l-61.6,28.3l-39.4,3.7l-27.1-6.2l-45.6-22.2l-40.6-23.4l-38.2-24.6
							l-51.7-25.9l-20.9-1.2l-8.6,6.2l-6.2,22.2v23.4l-1.2,17.3l-17.2,28.3l-30.8,19.7l-45.6,11.1l-57.9,2.5l-69-6.2l-78.8-13.6
							l-86.2-22.2l-46.8-14.8l-50.5-18.5l-54.2-25.9l-24.6-18.5l-17.2-22.2l-11.1-24.6l-4.9-45.6l3.7-40.7l3.7-19.7l12.3-38.2
							l20.9-35.7l32-35.7l70.2-57.9l151.5-89.9l107.1-56.7l161.3-85l178.6-103.5l93.6-62.8l78.8-64.1l69-69l98.5-120.7l71.4-104.7
							l64-99.8l60.3-110.9l19.7-56.7l4.9-41.9l-13.5-30.8l-28.3-18.5l-45.6-8.6l-29.6-1.2l-16,1.2l-32,6.2l-29.6,11.1l-28.3,18.5
							l-40.6,40.7l-55.4,83.8l-29.6,56.7l-23.4,44.4l-54.2,81.3l-61.6,71.5l-69,62.8l-77.6,54.2l-86.2,44.4l-93.6,35.7l-103.4,27.1
							l-55.4,9.9l-59.1,11.1l-114.5,25.9l-107.1,33.3l-98.5,38.2l-87.4,43.1l-73.9,46.8l-60.3,49.3l-43.1,50.5l-13.5,25.9
							l-13.5,28.3l-19.7,61.6l-20.9,99.8l-4.9,99.8l3.7,62.8l9.9,55.4l17.2,46.8l11.1,18.5l12.3,16l46.8,37l66.5,37l80,37l133,49.3
							l131.8,34.5l76.3,12.3l33.2,1.2l57.9,1.2l120.7,17.2l41.9,12.3l18.5,8.6l30.8,22.2l20.9,27.1l12.3,29.6l2.5,30.8l-6.2,27.1
							l-16,20.9l-27.1,13.6l-17.2,2.5l-130.5,2.5l-459.3-16l-125.6-9.9l-18.5-3.7l-38.2-12.3l-60.3-30.8l-81.3-60.4l-77.6-78.8
							l-71.4-89.9l-59.1-97.3l-44.3-97.3l-23.4-93.6l-2.5-43.1l1.2-32l17.2-75.2l30.8-82.5l43.1-87.5l50.5-86.2l56.6-81.3l60.3-70.2
							l59.1-56.7l29.6-19.7l32-18.5l104.7-43.1l135.5-46.8l151.5-44.4l76.3-18.5l78.8-19.7l142.8-48.1l121.9-59.1l108.4-73.9
							l94.8-92.4l86.2-113.3l81.3-136.8l77.6-165.1l39.4-94.9l129.3-320.3l131.8-305.5l83.7-170l24.6-50.5l51.7-88.7l48-67.8
							l38.2-38.2l12.3-3.7l11.1-1.2l13.5-16l6.2-28.3l-4.9-37l-6.2-20.9l-7.4-27.1l-3.7-39.4l12.3-25.9l28.3-11.1l22.2-1.2l17.2-1.2
							l32-16l22.2-27.1l13.5-38.2v-22.2l1.2-20.9l13.5-38.2l22.2-28.3l29.6-14.8l16-2.5l17.2-1.2l29.6-13.6l22.2-24.6l13.5-33.3
							l1.2-18.5l2.5-19.7l27.1-44.4l48-45.6l64-41.9l36.9-17.2l44.3-22.2l70.2-45.6l46.8-54.2l25.9-62.8l6.2-38.2l6.2-41.9
							l12.3-44.4l12.3-18.5l16-12.3l20.9-4.9l41.9,1.2l39.4,8.6l32,6.2l69-1.2l72.7-17.3l73.9-32l36.9-22.2l99.7-62.8l221.7-113.3
							l245.1-98.6l264.8-85l282-69l295.5-53l305.4-37l312.8-18.5l157.6-1.2l189.6,1.2l312.8,13.6l291.9,35.7l331.3,65.3l204.4,46.8
							l144.1,35.7l285.7,75.2l254.9,76.4l194.6,65.3l60.3,25.9l548,253.8l440.9,195.9l157.6,61.6l45.6,13.6l27.1,9.9l73.9,38.2
							l86.2,55.4l87.4,66.5l41.9,35.7l46.8,40.7l141.6,103.5l293.1,193.4l493.8,294.4l389.1,215.6l246.3,128.1l113.3,56.7l174.9,85
							l312.8,158.9l88.7,49.3l36.9,22.2l69,54.2l60.3,60.4l49.3,64.1l35.7,64.1l22.2,60.4l6.2,54.2l-13.5,44.4l-13.5,17.2
							l-18.5,18.5l-25.9,40.7l-13.5,43.1l-1.2,43.1l9.9,41.9l20.9,40.7l32,35.7l43.1,29.6l24.6,12.3l29.6,13.6l49.3,34.5l39.4,44.4
							l29.6,53l20.9,62.8l9.9,72.7l1.2,83.8l-8.6,94.9l-7.4,51.7l-8.6,44.4l-22.2,78.8l-28.3,66.5l-39.4,56.7l-49.3,48.1l-61.6,40.7
							l-77.6,34.5l-92.4,30.8l-54.2,14.8l-109.6,27.1l-124.4,22.2l-62.8,4.9l-48-3.7l-34.5-13.6l-20.9-22.2l-9.9-32l-1.2-19.7
							l1.2-11.1l8.6-23.4l27.1-38.2l62.8-53l92.4-55.4l57.9-27.1l50.5-24.6l85-49.3l59.1-44.4l22.2-27.1l3.7-13.6l-2.5-4.9l-4.9-6.2
							l-14.8-7.4l-32-3.7l-64,11.1l-78.8,24.6l-88.7,35.7l-93.6,44.4l-93.6,53l-87.4,57.9l-39.4,30.8l-44.3,34.5l-88.7,62.8l-85,53
							l-81.3,43.1l-76.3,33.3l-71.4,20.9l-62.8,9.9l-56.6-1.2l-23.4-6.2l-29.6-7.4h-51.7l-46.8,18.5l-43.1,38.2l-20.9,27.1
							l-18.5,23.4l-55.4,55.4l-114.5,99.8l-205.6,156.5l-242.6,167.6l-254.9,165.1l-243.8,146.6l-209.3,112.1l-118.2,51.7l-57.9,16
							l-19.7,1.2h-20.9l-30.8-7.4l-13.5-13.6v-18.5l14.8-24.6l28.3-28.3l67.7-49.3l64-38.2l86.2-48.1l177.3-110.9l177.3-123.2
							l177.3-134.3l173.6-140.4l167.5-145.4l157.6-146.6l146.5-145.4l131.8-140.4l113.3-133.1l94.8-122l71.4-109.6l45.6-93.6
							l14.8-57.9l1.2-32l-6.2-25.9l-14.8-20.9l-24.6-13.6l-32-7.4h-19.7h-12.3l-25.9,7.4l-38.2,23.4l-51.7,55.4l-51.7,82.5
							l-25.9,51.7l-38.2,77.6l-97.3,157.7l-120.7,157.7l-142.8,160.2l-165,158.9l-187.2,160.2l-206.9,158.9l-229,157.7l-121.9,78.9
							l-128.1,78.8l-234,140.4l-190.9,106l-124.4,60.4l-24.6,4.9l-20.9,2.5l-77.6,20.9l-169.9,59.1l-133,54.2l-322.6,138
							l-1161.2-29.6l-258.6-7.4l-442.1-19.7l-333.7-22.2l-162.5-19.7l-65.3-13.6l-17.2-7.4l-23.4-11.1l-48-16l-41.9-6.2l-30.8,4.9
							l-8.6,6.2l-6.2,8.6l-2.5,17.2l8.6,16l18.5,14.8l13.5,4.9l19.7,7.4l24.6,18.5l6.2,18.5l-8.6,19.7l-23.4,18.5l-35.7,17.3
							l-45.6,11.1l-54.2,7.4h-30.8h-39.4l-61.6-12.3l-44.3-25.9l-29.6-39.4L4696.7,41939.2z M7691.6,41683l112.1-30.8l214.3-62.8
							l204.4-67.8l193.3-72.7l182.3-76.4l173.6-82.5l163.8-87.5l155.2-93.6l145.3-98.6l136.7-103.5l129.3-110.9l119.4-115.8
							l113.3-123.2l104.7-129.4l98.5-135.5l89.9-142.9l43.1-75.2l70.2-125.7l65.3-135.5l25.9-65.3l8.6-46.8l-7.4-32l-20.9-17.3
							l-36.9-7.4h-23.4l-12.3,1.2l-25.9,11.1l-48,35.7l-73.9,83.8l-83.7,118.3l-44.3,72.7l-57.9,94.9l-141.6,192.2l-162.5,193.4
							l-181,187.3l-193.3,177.4l-199.5,162.6l-200.7,141.7l-194.6,117l-93.6,45.6l-86.2,38.2l-190.9,76.4l-205.6,71.5l-206.9,64.1
							l-197,54.2l-178.6,39.4l-146.5,23.4l-81.3,4.9l-39.4-3.7l-13.5-3.7l-24.6-9.9l-33.2-22.2l-12.3-23.4l4.9-22.2l23.4-22.2
							l39.4-19.7l55.4-17.3l69-12.3l39.4-3.7l44.3-4.9l85-14.8l76.3-19.7l56.6-22.2l17.2-11.1l18.5-12.3l70.2-32l153.9-53l121.9-32
							l80-22.2l163.8-54.2l165-66.5l163.8-78.8l161.3-88.7l153.9-97.3l145.3-104.7l134.2-109.6l61.6-56.7l56.6-54.2l115.8-129.4
							l117-144.1l112.1-151.5l99.7-150.3l82.5-139.2l61.6-122l27.1-73.9l8.6-39.4l1.2-16l-1.2-34.5l-9.9-50.5l-18.5-30.8l-24.6-11.1
							l-30.8,8.6l-34.5,28.3l-36.9,46.8l-38.2,65.3l-18.5,39.4l-35.7,72.7l-108.4,177.4l-141.6,200.8l-161.3,208.2l-165,198.4
							l-158.9,173.7l-136.7,131.8l-77.6,59.1l-39.4,19.7l-14.8,1.2l-24.6-1.2l-24.6-11.1l-9.9-12.3l-4.9-24.6l13.5-48.1l34.5-62.8
							l56.6-77.6l124.4-144.1l114.5-118.3l62.8-64.1l120.7-135.5l113.3-140.4l102.2-139.2l88.7-134.3l71.4-123.2l50.5-110.9
							l28.3-91.2l2.5-35.7v-19.7l-6.2-32l-12.3-22.2l-17.2-12.3l-19.7-2.5l-20.9,7.4l-20.9,18.5l-19.7,28.3l-7.4,18.5l-19.7,44.4
							l-56.6,103.5l-112.1,173.7l-128.1,170l-82.5,96.1l-71.4,73.9l-41.9,33.3l-20.9,9.9l-8.6,1.2H8790l-30.8-8.6l-13.5-20.9
							l3.7-35.7l22.2-54.2l41.9-73.9l98.5-150.3l99.7-141.7l48-69l72.7-114.6l32-70.2l12.3-41.9l1.2-37l-6.2-34.5l-17.2-30.8
							l-27.1-29.6l-57.9-41.9l-119.4-55.4l-165-60.4l-104.7-33.3l-178.6-60.4l-288.2-106l-62.8-30.8l-59.1-29.6l-264.8-110.9
							l-343.6-133.1l-312.8-114.6l-101-33.3l-137.9-41.9l134.2-39.4l43.1-12.3l48-18.5l7.4-12.3l-7.4-7.4l-29.6-14.8l-34.5-13.6
							l-48-16l-110.8-23.4l-44.3-3.7h-30.8l-28.3,4.9l-8.6,8.6l-1.2,22.2l24.6,59.1l24.6,45.6l24.6,48l45.6,117l39.4,136.8
							l34.5,155.2l28.3,171.3l20.9,183.6l14.8,195.9l6.2,205.7l1.2,106l-1.2,162.6l-12.3,247.6l-22.2,144.1l-20.9,88.7l-43.1,131.8
							l-40.6,98.6l-27.1,66.5l-41.9,115.8l-24.6,88.7l-3.7,39.4l3.7,13.6l4.9,1.2l13.5,1.2l20.9,8.6l9.9,18.5l1.2,27.1l-14.8,54.2
							l-54.2,97.3l-41.9,59.1l-22.2,30.8l-30.8,50.5l-14.8,38.2v22.2l13.5,8.6l27.1-8.6l36.9-23.4l46.8-41.9l28.3-28.3l20.9-20.9
							l44.3-30.8l43.1-18.5l36.9-2.5l13.5,6.2l27.1,14.8l64,23.4l24.6,4.9l70.2,14.8l108.4,32l24.6,8.6l41.9,24.6l29.6,29.6
							l19.7,30.8l6.2,30.8l-4.9,25.9l-19.7,20.9l-33.2,12.3l-23.4,1.2l-16-1.2l-29.6-9.9l-23.4-18.5l-12.3-23.4l-1.2-12.3l-1.2-17.2
							l-4.9-17.3l-11.1,1.2l-18.5,20.9l-12.3,17.3l-12.3,14.8l-41.9,27.1l-59.1,20.9l-66.5,13.6l-34.5,2.5l-70.2,6.2l-87.4,18.5
							l-40.6,14.8l-9.9,7.4l-25.9,22.2l-35.7,14.8h-20.9l-18.5-6.2l-14.8-13.6l-9.9-20.9l-6.2-27.1v-17.3v-25.9l-6.2-23.4l-7.4-6.2
							l-18.5,3.7l-45.6,33.3l-35.7,29.6l-33.2,28.3l-49.3,32l-27.1,6.2l-14.8-3.7l-22.2-18.5l-13.5-20.9l-14.8-22.2l-20.9-18.5
							l-14.8-4.9l-23.4,2.5l-44.3,28.3l-29.6,24.6l-23.4,18.5l-72.7,41.9l-93.6,43.1l-103.4,40.7l-50.5,17.2l-49.3,16l-81.3,30.8
							l-62.8,30.8l-43.1,29.6l-24.6,28.3l-3.7,25.9l16,23.4l38.2,19.7l27.1,8.6l29.6,4.9l144.1,7.4l347.3,3.7l290.6-4.9l187.2-4.9
							l321.4-19.7l273.4-30.8l243.8-45.6L7691.6,41683z M5513.1,41377.4l-29.6-130.6l-50.5-262.4l-35.7-224.2l-11.1-114.6l1.2-41.9
							l3.7-7.4l13.5-11.1l25.9-4.9l25.9,13.6l27.1,34.5l27.1,55.4l29.6,77.6l46.8,152.8l33.2,135.5l23.4,98.6l46.8,156.5l44.3,106
							l30.8,43.1l19.7,13.6l8.6,1.2l22.2-1.2l51.7-11.1l92.4-33.3l133-70.2l92.4-64.1l53-43.1l20.9-22.2l16-17.3l23.4-29.6
							l11.1-29.6l-2.5-32l-20.9-40.7l-39.4-50.5l-96.1-103.5l-99.7-101l-76.3-77.6l-108.4-122l-46.8-67.8l-18.5-35.7l-6.2-28.3
							l3.7-20.9l7.4-8.6l8.6-6.2l20.9-4.9l28.3,4.9l34.5,16l65.3,41.9l115.8,97.3l73.9,67.8l118.2,108.4l140.4,118.3l59.1,41.9
							l13.5,3.7l9.9-3.7l29.6-33.3l59.1-94.9l87.4-170l48-118.3l18.5-59.1l2.5-19.7l-1.2-6.2l-16-16l-46.8-28.3l-103.4-46.8
							l-137.9-50.5l-77.6-24.6l-87.4-28.3l-141.6-53l-98.5-49.3l-41.9-33.3l-13.5-20.9v-8.6l-1.2-32l6.2-28.3l16-7.4l51.7,6.2
							l152.7,48.1l130.5,43.1l130.5,41.9l211.8,56.7l45.6,4.9l13.5-1.2l28.3-25.9l27.1-43.1l24.6-55.4l18.5-60.4l12.3-61.6l2.5-53
							l-8.6-40.7l-9.9-12.3l-13.5-6.2l-76.3-16l-197-25.9l-169.9-12.3l-94.8-7.4l-147.8-18.5l-101-20.9l-40.6-17.2l-13.5-11.1
							l-1.2-11.1l11.1-9.9l38.2-14.8l94.8-16l145.3-11.1l93.6-1.2l168.7-3.7l177.3-12.3l82.5-13.6l56.6-18.5l30.8-24.6l8.6-32
							l-9.9-39.4l-12.3-23.4l-9.9-16l-18.5-24.6l-23.4-18.5l-30.8-11.1l-65.3-7.4l-145.3,12.3l-107.1,13.6l-142.8,17.3l-184.7,11.1
							h-86.2l-23.4-4.9l-13.5-2.5h-23.4l-19.7,8.6l-16,17.2l-20.9,44.4l-23.4,103.5l-11.1,75.2l-12.3,73.9l-34.5,141.7l-48,134.3
							l-57.9,123.2l-66.5,109.6l-75.1,93.6l-80,75.2l-83.7,51.7l-41.9,16l-50.5,14.8l-96.1,17.3l-91.1,2.5l-88.7-12.3l-87.4-27.1
							l-85-43.1l-86.2-59.1l-87.4-76.4l-44.3-44.4l-73.9-78.8l-89.9-115.8l-50.5-77.6l-44.3-78.8l-36.9-83.8l-46.8-136.8
							l-25.9-102.3l-9.9-44.4l-17.2-43.1l-13.5-17.2l-18.5-9.9l-22.2-1.2l-46.8,8.6l-44.3,16l-30.8,9.9l-77.6,18.5l-87.4,13.6
							l-87.4,7.4l-38.2,1.2l-41.9,1.2l-71.4,11.1l-55.4,19.7l-36.9,29.6l-9.9,18.5l-7.4,20.9v34.5l17.2,28.3l33.2,19.7l50.5,13.6
							l67.7,6.2l131.8-3.7l113.3-12.3l65.3-7.4l101-6.2l69,6.2l27.1,11.1l8.6,11.1l1.2,6.2v11.1l-4.9,19.7l-11.1,16l-23.4,16
							l-60.3,23.4l-151.5,41.9l-118.2,28.3l-53,13.6l-85,32l-60.3,34.5l-25.9,27.1l-8.6,18.5v9.9v23.4l13.5,37l27.1,27.1l39.4,14.8
							l51.7,2.5l65.3-7.4l77.6-19.7l88.7-30.8l50.5-20.9l103.4-44.4l126.8-49.3l44.3-8.6l14.8,6.2l8.6,24.6l-1.2,28.3l-1.2,7.4
							l-11.1,17.3l-34.5,30.8l-73.9,49.3l-98.5,50.5l-55.4,24.6l-59.1,25.9l-99.7,53l-71.4,51.7l-30.8,35.7l-9.9,20.9l-1.2,9.9
							l1.2,25.9l13.5,40.7l25.9,27.1l36.9,14.8h46.8l54.2-12.3l62.8-25.9l67.7-39.4l35.7-24.6l73.9-53l101-62.8l45.6-14.8l19.7,3.7
							l12.3,14.8l4.9,24.6l1.2,17.3l-3.7,16l-30.8,48l-54.2,61.6l-72.7,66.5l-40.6,34.5l-200.7,160.2l104.7,138l44.3,55.4l57.9,60.4
							l28.3,20.9l7.4,2.5l9.9-3.7l39.4-38.2l93.6-113.3l76.3-103.5l39.4-53l77.6-93.6l69-71.5l53-39.4l16-3.7h19.7l27.1,6.2l13.5,16
							l1.2,25.9l-24.6,64.1l-88.7,146.6l-72.7,108.4l-193.3,284.6l117,91.2l43.1,32l77.6,41.9l70.2,16l44.3-4.9l27.1-11.1l24.6-16
							l22.2-23.4l28.3-44.4l25.9-81.3l13.5-104.7l1.2-61.6l1.2-35.7l9.9-71.5l16-69l22.2-62.8l25.9-53l28.3-39.4l28.3-20.9l27.1-2.5
							l12.3,9.9l6.2,7.4l11.1,22.2l8.6,49.3l-2.5,101l-17.2,139.2l-16,86.2l-12.3,72.7l-17.2,118.3l-3.7,91.2l9.9,65.3l19.7,35.7
							l18.5,18.5l36.9,20.9l69,14.8l93.6,7.4h56.6h60.3l57.9-4.9l25.9-8.6l14.8-14.8l6.2-20.9l-3.7-46.8L5513.1,41377.4z
							 M11110,40235.3l94.8-45.6l105.9-62.8l49.3-37l30.8-30.8l12.3-24.6l-8.6-17.3l-30.8-8.6l-23.4-1.2l-27.1,2.5l-78.8,19.7
							l-152.7,56.7l-230.3,108.4l-142.8,82.5l-66.5,48.1l-19.7,19.7l-20.9,25.9l-29.6,45.6l-14.8,37v28.3l12.3,16l25.9,4.9l35.7-8.6
							l46.8-22.2l27.1-18.5l62.8-40.7l221.7-118.3L11110,40235.3z M11672.8,39832.5l-1.2-7.4l-8.6-16l-24.6-24.6l-56.6-35.7
							l-73.9-32l-41.9-12.3l-78.8-24.6l-184.7-69l-211.8-91.2l-230.3-110.9l-242.6-125.7l-248.8-136.8l-246.3-144.1L9785,38853
							l-113.3-75.2l-158.9-106l-318.9-199.6l-315.2-181.1l-310.3-162.6l-302.9-144.1l-291.9-122l-280.8-101l-266-77.6l-125.6-29.6
							l-208.1-45.6l-293.1-75.2l-129.3-45.6l-50.5-28.3l-23.4-25.9l2.5-24.6l12.3-13.6l9.9-6.2l36.9-7.4l97.3,4.9l225.4,43.1
							l346,83.8l230.3,60.4l115.8,33.3l275.8,101l315.2,134.3l336.2,158.9l341.1,174.9l331.3,183.6l302.9,182.3l259.8,174.9
							l104.7,80.1l49.3,38.2l108.4,76.4l177.3,112.1l254.9,139.2l259.8,122l248.8,98.6l221.7,69l135.5,27.1l75.1,6.2l57.9-6.2
							l39.4-17.2l12.3-13.6l8.6-17.2l4.9-33.3l-19.7-37l-45.6-41.9l-77.6-51.7l-114.5-64.1l-245.1-124.4l-235.2-112.1l-149-71.5
							l-363.3-191l-397.8-220.5l-385.4-225.5l-168.7-104.7l-152.7-93.6l-300.5-177.4l-285.7-157.7l-264.8-138l-237.7-112.1
							l-203.2-85l-161.3-51.7l-86.2-16h-43.1l-14.8,4.9l-18.5,4.9l-40.6-1.2l-40.6-14.8l-36.9-24.6l-14.8-16l-18.5-18.5l-81.3-44.4
							l-121.9-49.3l-146.5-48.1l-77.6-20.9l-77.6-20.9l-140.4-45.6l-110.8-45.6l-53-29.6l-19.7-17.2l-3.7-7.4l-4.9-17.2l4.9-22.2
							l24.6-9.9l45.6,3.7l30.8,7.4l46.8,9.9l35.7-2.5l1.2-11.1l-7.4-7.4l-13.5-9.9l-50.5-20.9l-112.1-32l-89.9-17.3l-66.5-11.1
							l-82.5-8.6l-25.9,6.2l-2.5,9.9l12.3,24.6l22.2,24.6l20.9,24.6l19.7,33.3l-7.4,18.5l-36.9,6.2h-32l-51.7-1.2l-55.4-13.6
							l-25.9-13.6l-14.8-18.5l-6.2-22.2l6.2-24.6l16-29.6l13.5-14.8l16-19.7l9.9-20.9v-11.1l-12.3-11.1l-41.9-7.4h-33.2h-30.8
							l-41.9,9.9l-22.2,18.5l-2.5,29.6l7.4,19.7l6.2,20.9l-1.2,23.4l-7.4,12.3l-20.9,12.3l-50.5,8.6l-35.7,1.2l-36.9-1.2l-50.5-8.6
							l-20.9-12.3l-7.4-12.3l-1.2-23.4l7.4-20.9l4.9-16l3.7-27.1l-3.7-22.2l-13.5-11.1l-8.6-1.2l-24.6-2.5l-77.6-18.5l-39.4-13.6
							l-27.1-8.6l-25.9-3.7l-11.1,3.7l-8.6,14.8l7.4,44.4l11.1,33.3l11.1,33.3l6.2,44.4l-9.9,17.3l-12.3,6.2l-28.3,1.2l-29.6-4.9
							l-20.9-6.2l-35.7-20.9l-24.6-30.8l-11.1-37v-20.9l1.2-16l-2.5-25.9l-12.3-18.5l-27.1-11.1l-71.4-8.6l-183.5,8.6l-142.8,12.3
							l-118.2,9.9l-230.3,32l-218,43.1l-204.4,54.2l-188.4,64.1l-168.7,72.7l-149,81.3l-125.6,88.7l-53,46.8l-43.1,41.9l-72.7,78.9
							l-49.3,64.1l-18.5,33.3l-2.5,13.6l2.5,3.7l12.3,9.9l39.4,12.3l80,9.9l118.2-7.4l66.5-18.5l24.6-17.2l2.5-9.9v-14.8l14.8-22.2
							l28.3-11.1l44.3-1.2l94.8,17.2l192.1,61.6l128.1,48l69,25.9l125.6,41.9l101,27.1l49.3,6.2l19.7-1.2l4.9-2.5l6.2-7.4l2.5-14.8
							l-6.2-13.6l-14.8-12.3l-11.1-4.9l-45.6-17.3l-75.1-41.9l-51.7-41.9l-14.8-27.1l1.2-16l4.9-6.2l4.9-2.5l24.6-1.2l62.8,8.6
							l129.3,29.6l162.5,44.4l89.9,28.3l93.6,28.3l176.1,45.6l147.8,28.3l81.3,7.4l39.4-1.2l13.5-3.7l23.4-6.2l56.6-3.7l59.1,6.2
							l56.6,14.8l23.4,11.1l25.9,11.1l80,23.4l101,18.5l110.8,13.6l55.4,3.7l109.6,8.6l141.6,22.2l65.3,17.2l17.2,8.6l16,8.6
							l38.2,9.9l43.1,2.5l41.9-4.9l18.5-6.2l19.7-6.2l46.8,2.5l50.5,14.8l49.3,25.9l20.9,16l22.2,17.3l49.3,25.9l50.5,14.8l48,1.2
							l19.7-4.9l19.7-6.2h54.2l64,9.9l65.3,20.9l30.8,13.6l72.7,33.3l213,83.8l107.1,35.7l338.6,113.3l320.2,118.3l204.4,86.2
							l123.1,54.2l145.3,62.8l224.1,87.5l41.9,9.9l12.3,2.5l35.7,12.3l75.1,39.4l140.4,88.7l174.9,124.4l99.7,75.2l86.2,65.3
							l184.7,125.7l202,124.4l213,118.3l221.7,112.1l226.6,104.7l230.3,94.9l230.3,82.5l113.3,37l157.6,49.3l195.8,56.7l71.4,9.9
							l25.9-4.9l12.3-14.8l2.5-25.9L11672.8,39832.5z M2247.4,39538v-20.9l8.6-39.4l14.8-35.7l19.7-27.1l11.1-7.4l11.1-8.6
							l19.7-28.3l14.8-38.2l8.6-44.4l1.2-23.4l-1.2-27.1l-4.9-38.2l-8.6-17.2l-13.5,3.7l-28.3,41.9l-50.5,130.6l-32,98.6l-14.8,48
							l-19.7,82.5l-6.2,56.7l4.9,22.2l6.2,3.7l6.2-2.5l9.9-8.6l19.7-25.9l13.5-34.5l8.6-40.7L2247.4,39538z M4025.6,39381.6h40.6
							l54.2-7.4l20.9-9.9l4.9-8.6l-4.9-17.2l-13.5-13.6l-16-12.3l-54.2-22.2l-119.4-28.3l-187.2-23.4H3629l-57.9,8.6l-18.5,8.6
							l-14.8,11.1l-11.1,25.9l6.2,29.6l23.4,29.6l33.2,27.1l43.1,20.9l46.8,13.6l48,2.5l22.2-4.9l54.2-11.1l150.2-16L4025.6,39381.6
							z M6574.6,39252.2l66.5-17.2l96.1-34.5l45.6-27.1l19.7-20.9l13.5-22.2l6.2-25.9v-13.6l-1.2-29.6l-11.1-30.8l-14.8-14.8
							l-35.7-13.6l-81.3-3.7l-59.1,2.5l-44.3,3.7l-105.9,20.9l-115.8,33.3l-120.7,43.1l-114.5,48.1l-102.2,50.5l-80,48l-39.4,33.3
							l-16,20.9l-3.7,8.6l-1.2,6.2l3.7,11.1l17.2,11.1l48,8.6h71.4l145.3-13.6l259.8-46.8L6574.6,39252.2z M2055.3,39120.4l4.9-11.1
							v-18.5l-14.8-14.8l-24.6-7.4l-17.2-1.2l-17.2,1.2l-30.8,7.4l-23.4,14.8l-13.5,18.5v11.1v9.9l7.4,19.7l14.8,13.6l18.5,8.6h9.9
							h11.1l23.4-8.6l34.5-22.2L2055.3,39120.4z M9400.8,39092l-39.4-27.1l-70.2-37l-53-12.3l-23.4,6.2l-7.4,12.3l-1.2,9.9l1.2,4.9
							l18.5,14.8l49.3,28.3l89.9,41.9l86.2,29.6l29.6,3.7l3.7-1.2l-6.2-11.1l-35.7-32L9400.8,39092z M3891.3,39019.4l-2.5-12.3
							l-17.2-23.4l-29.6-19.7l-39.4-18.5l-67.7-18.5l-66.5-3.7l-38.2,7.4l-13.5,7.4l-11.1,7.4l-16,18.5l-6.2,22.2l2.5,23.4l6.2,9.9
							l8.6,11.1l33.2,18.5l45.6,11.1l50.5,6.2h53l46.8-6.2l36.9-11.1l22.2-18.5L3891.3,39019.4z M5354.3,38898.6l75.1-80.1
							l169.9-202.1l66.5-89.9l30.8-41.9l77.6-86.2l86.2-77.6l85-61.6l36.9-19.7l35.7-18.5l62.8-38.2l49.3-38.2l36.9-37l19.7-30.8
							l2.5-22.2l-18.5-9.9l-39.4,4.9l-30.8,9.9l-59.1,23.4l-121.9,57.9l-123.1,70.2l-119.4,80.1l-113.3,88.7l-103.4,94.9l-92.4,97.3
							l-76.3,97.3l-29.6,48l-66.5,110.9l-71.4,133.1l-24.6,55.4l-2.5,12.3v13.6l8.6,18.5l17.2,6.2l24.6-4.9l51.7-27.1l96.1-78.8
							L5354.3,38898.6z M2603.3,38754.5l54.2-104.7l49.3-112.1l11.1-40.7l-3.7-3.7l-9.9,3.7l-32,33.3l-71.4,93.6l-105.9,163.9
							l-60.3,108.4l-20.9,51.7l-2.5,14.8v18.5l6.2,24.6l11.1,8.6l17.2-8.6l35.7-41.9l73.9-119.5L2603.3,38754.5z M6357.9,38874
							l94.8-35.7l145.3-64.1l72.7-43.1l34.5-27.1l23.4-24.6l11.1-24.6l1.2-11.1l-1.2-25.9l-11.1-40.7l-24.6-25.9l-38.2-12.3
							l-54.2,3.7l-71.4,17.3l-139.2,51.7l-124.4,56.7l-139.2,65.3l-187.2,96.1l-78.8,51.7l-28.3,28.3l-12.3,24.6l2.5,23.4l6.2,11.1
							l8.6,12.3l19.7,18.5l27.1,9.9h39.4l85-17.3l193.3-65.3L6357.9,38874z M9042.4,38938l-3.7-9.9l-35.7-28.3l-108.4-59.1
							l-232.7-102.3l-294.3-115.8l-318.9-114.6l-306.6-101l-258.6-75.2l-136.7-29.6l-57.9-4.9l-16,2.5l-6.2,2.5l-2.5,7.4l12.3,13.6
							l49.3,23.4l77.6,25.9l49.3,13.6l246.3,66.5l247.5,72.7l85,27.1l150.2,51.7l267.2,107.2l318.9,140.4l173.6,76.4l88.7,30.8
							l12.3-8.6V38938z M3781.7,38702.7l-1.2-11.1l-13.5-18.5l-22.2-14.8l-29.6-7.4l-16-1.2l-17.2,1.2l-29.6,7.4l-22.2,14.8
							l-12.3,18.5l-1.2,11.1l1.2,9.9l12.3,19.7l22.2,13.6l29.6,8.6h17.2h16l29.6-8.6l22.2-13.6l13.5-19.7L3781.7,38702.7z
							 M6200.3,38515.5l149-80.1l146.5-83.8l61.6-40.7l35.7-33.3l11.1-27.1l-7.4-24.6l-24.6-25.9l-17.2-14.8l-12.3-8.6l-24.6-13.6
							l-27.1-6.2l-29.6,2.5l-55.4,14.8l-101,50.5l-67.7,40.7l-103.4,65.3l-176.1,120.7l-128.1,104.7l-56.6,60.4l-17.2,30.8
							l-1.2,12.3v13.6l9.9,18.5l20.9,7.4l35.7-3.7l78.8-28.3l176.1-85L6200.3,38515.5z M2274.5,38598l4.9-11.1l-1.2-18.5l-14.8-13.6
							l-27.1-8.6H2219h-17.2l-27.1,8.6l-14.8,13.6l-1.2,18.5l6.2,11.1l14.8,20.9l29.6,28.3l9.9,2.5l11.1-2.5l29.6-28.3L2274.5,38598
							z M2466.6,38306l-1.2-4.9l-13.5-7.4l-35.7-7.4l-32-1.2h-17.2l-29.6,8.6l-22.2,13.6l-12.3,18.5l-1.2,9.9l1.2,9.9l12.3,13.6
							l22.2,4.9l29.6-2.5l17.2-4.9l32-13.6l45.6-27.1L2466.6,38306z M2685.8,38128.6l-2.5-11.1l-16-18.5l-30.8-14.8l-38.2-7.4
							l-22.2-1.2l-23.4,1.2l-38.2,7.4l-30.8,14.8l-16,18.5l-1.2,11.1l1.2,9.9l16,19.7l30.8,13.6l38.2,8.6h23.4h22.2l38.2-8.6
							l30.8-13.6l16-19.7L2685.8,38128.6z M3124.2,37762.7l-1.2-9.9l-13.5-19.7l-23.4-13.6l-30.8-8.6H3038h-17.2l-24.6,8.6
							l-14.8,13.6v19.7l4.9,9.9l17.2,20.9l34.5,23.4l23.4,7.4l11.1,1.2l9.9-1.2l18.5-7.4l14.8-14.8l7.4-18.5L3124.2,37762.7z
							 M3753.4,37658l-7.4-9.9l-24.6-18.5l-32-14.8l-34.5-7.4l-17.2-1.2l-16,1.2l-24.6,7.4l-13.5,14.8v18.5l6.2,9.9l7.4,11.1
							l24.6,18.5l32,14.8l34.5,7.4l17.2,1.2l16-1.2l24.6-7.4l13.5-14.8v-18.5L3753.4,37658z M3452.9,37559.4l-2.5-11.1l-12.3-22.2
							l-39.4-29.6l-71.4-25.9l-55.4-3.7l-30.8,4.9l-13.5,7.4l-16,9.9l-23.4,22.2l-9.9,22.2l1.2,20.9l12.3,18.5l23.4,16l33.2,11.1
							l41.9,6.2h24.6h28.3l49.3-7.4l36.9-12.3l20.9-17.3L3452.9,37559.4z M3095.8,37449.8l6.2-11.1l3.7-18.5l-4.9-13.6l-14.8-8.6
							h-11.1h-11.1l-24.6,8.6l-35.7,22.2l-17.2,20.9l-6.2,11.1l-3.7,18.5l6.2,13.6l14.8,8.6h9.9h12.3l24.6-8.6l35.7-22.2
							L3095.8,37449.8z M3094.6,41048.5l-9.9-12.3l-32-27.1l-66.5-40.7l-51.7-20.9l-28.3-11.1l-54.2-38.2l-51.7-54.2l-48-69
							l-44.3-80.1l-40.6-92.4l-35.7-99.8l-30.8-108.4l-25.9-113.3l-19.7-117l-13.5-118.3l-7.4-119.5l-1.2-117l7.4-114.6l13.5-108.4
							l23.4-102.3l14.8-48l16-49.3l32-80.1l30.8-59.1l29.6-38.2l29.6-17.3l30.8,2.5l30.8,22.2l32,43.1l17.2,28.3l16,33.3l19.7,73.9
							l3.7,88.7l-11.1,108.4l-11.1,62.8l-13.5,76.4l-12.3,151.5l6.2,149.1l27.1,151.5l48,156.5l69,162.6l91.1,173.7l114.5,184.8
							l67.7,98.6l33.2,49.3l35.7,59.1l1.2,22.2l-11.1,8.6l-34.5,4.9h-38.2l-23.4-1.2l-45.6-8.6l-40.6-14.8l-29.6-19.7
							L3094.6,41048.5z"/>
					</g>
				</g>
			</g>
		</g>
		<rect y="1029.7" fill="none" width="343" height="158.3"/>
	</g>
	<g id="shape34-23" transform="translate(1494.84,-621)">
		<g transform="scale(-4,-4) ">
			<g id="lend5_1_">
				<path d="M-303.8,1203l-48-24l47.5-23.8c-7.4,15.1-7.4,32.8,0.1,47.9"/>
			</g>
		</g>
		<rect x="-283.8" y="1150.2" fill="#FFFFFF" width="209.7" height="57.6"/>
		<text transform="matrix(1 0 0 1 -283.7701 1171.8)" font-family="'FranklinGothic-Demi'" font-size="23.9999px">Knowledge &amp; Skills </text>
		<text transform="matrix(1 0 0 1 -283.7701 1200.5999)" font-family="'FranklinGothic-Demi'" font-size="23.9999px">Exhibition Summary</text>
	</g>
	<g id="shape35-31" transform="translate(1188,-689.138)">
		<rect y="1168" fill="none" width="234" height="20"/>
		<text transform="matrix(1 0 0 1 27.28 1187)" fill="#01B5D5" font-family="'FranklinGothic-Demi'" font-size="30.0001px">Looking Back</text>
	</g>
	<g id="shape36-34" transform="translate(627.228,-689.138)">
		<rect x="0" y="1168" fill="none" width="234" height="20"/>
		<text transform="matrix(1 0 0 1 7.2 1187)" fill="#20AE4A" font-family="'FranklinGothic-Demi'" font-size="30.0001px">Looking Forward</text>
	</g>
</g>
</svg>
